SplineFontDB: 3.0
FontName: Pacifico
FullName: Pacifico
FamilyName: Pacifico
Weight: Regular
Copyright: Copyright (c) 2011-13 by vernon adams. All rights reserved.
Version: 2
ItalicAngle: 0
UnderlinePosition: 0
UnderlineWidth: 0
Ascent: 1638
Descent: 410
UFOAscent: 1986
UFODescent: -940
LayerCount: 2
Layer: 0 0 "Back"  1
Layer: 1 0 "Fore"  0
OS2Version: 0
OS2_WeightWidthSlopeOnly: 0
OS2_UseTypoMetrics: 0
CreationTime: 1393974661
ModificationTime: 1393974686
PfmFamily: 0
TTFWeight: 300
TTFWidth: 5
LineGap: 0
VLineGap: 0
OS2TypoAscent: 0
OS2TypoAOffset: 1
OS2TypoDescent: 0
OS2TypoDOffset: 1
OS2TypoLinegap: 0
OS2WinAscent: 0
OS2WinAOffset: 1
OS2WinDescent: 0
OS2WinDOffset: 1
HheadAscent: 0
HheadAOffset: 1
HheadDescent: 0
HheadDOffset: 1
OS2Vendor: 'NeWT'
Lookup: 4 0 0 "fracDiagonalFractionsinLatinloo"  {"fracDiagonalFractionsinLatinloo subtable"  } ['frac' ('latn' <'dflt' > 'DFLT' <'dflt' > ) ]
Lookup: 6 0 0 "ordnOrdinalsinLatinlookup1"  {"ordnOrdinalsinLatinlookup1 contextual 0"  "ordnOrdinalsinLatinlookup1 contextual 1"  } ['ordn' ('latn' <'dflt' > 'DFLT' <'dflt' > ) ]
Lookup: 1 0 0 "Single Substitution lookup 2"  {"Single Substitution lookup 2 subtable"  } []
Lookup: 1 0 0 "Single Substitution lookup 3"  {"Single Substitution lookup 3 subtable"  } []
Lookup: 4 0 0 "dligDiscretionaryLigaturesinLat"  {"dligDiscretionaryLigaturesinLat subtable"  } ['dlig' ('latn' <'dflt' > 'DFLT' <'dflt' > ) ]
MarkAttachClasses: 1
DEI: 91125
ChainSub2: coverage "ordnOrdinalsinLatinlookup1 contextual 1"  0 0 0 1
 1 1 0
  Coverage: 3 O o
  BCoverage: 49 zero one two three four five six seven eight nine
 1
  SeqLookup: 0 "Single Substitution lookup 3" 
EndFPST
ChainSub2: coverage "ordnOrdinalsinLatinlookup1 contextual 0"  0 0 0 1
 1 1 0
  Coverage: 3 A a
  BCoverage: 49 zero one two three four five six seven eight nine
 1
  SeqLookup: 0 "Single Substitution lookup 2" 
EndFPST
LangName: 1033 "" "" "" "" "" "Version 2" "" "" "vernon adams" "vernon adams" 
PickledData: "(dp1

StartChar: A
Encoding: 65 65 0
Width: 1400
VWidth: 0
Flags: HW
PickledData: "(dp1
S'com.typemytype.robofont.layerData'
p2
(dp3
s."
AnchorPoint: "top" 1116 1358 basechar 0
AnchorPoint: "ogonek" 1108 -95 basechar 0
LayerCount: 2
Fore
SplineSet
589 -122 m 256
 770 -122 941 36 993 177 c 257
 993 177 983 105 990 49 c 256
 1000 -36 1040 -103 1126 -115 c 256
 1229 -129 1358 -68 1418 3 c 256
 1427 14 1431 28 1431 41 c 256
 1431 79 1396 112 1365 112 c 256
 1359 112 1352 112 1343 104 c 256
 1300 66 1218 16 1173 32 c 256
 1152 40 1140 54 1140 106 c 256
 1140 154 1150 226 1172 330 c 258
 1315 979 l 258
 1316 984 1316 989 1316 993 c 256
 1316 1039 1265 1070 1219 1070 c 256
 1184 1069 1159 1054 1152 1021 c 258
 1021 444 l 258
 972 227 826 34 615 34 c 256
 418 34 310 168 319 406 c 256
 339 934 694 1266 1074 1261 c 256
 1206 1259 1342 1216 1467 1126 c 257
 1483 1113 1501 1108 1516 1108 c 256
 1552 1108 1582 1139 1582 1177 c 256
 1582 1195 1577 1218 1555 1238 c 256
 1420 1365 1252 1424 1080 1428 c 256
 618 1436 121 1035 120 404 c 256
 119 61 282 -122 589 -122 c 256
EndSplineSet
Substitution2: "Single Substitution lookup 2 subtable" ordfeminine
EndChar

StartChar: B
Encoding: 66 66 13
Width: 1262
VWidth: 0
Flags: HW
PickledData: "(dp1
S'com.typemytype.robofont.layerData'
p2
(dp3
s."
AnchorPoint: "top" 773 1358 basechar 0
LayerCount: 2
Fore
SplineSet
421 -162 m 256
 790 -162 1172 92 1172 359 c 256
 1172 505 1023 606 877 630 c 257
 1160 655 1275 828 1293 958 c 256
 1322 1170 1128 1390 713 1390 c 256
 379 1390 188 1270 57 1148 c 256
 -3 1091 88 964 197 1057 c 256
 325 1167 465 1242 720 1242 c 256
 988 1242 1099 1112 1099 976 c 256
 1099 869 1017 689 706 693 c 258
 642 694 l 258
 591 695 552 683 552 641 c 256
 551 530 975 619 975 348 c 256
 975 170 714 -30 407 -30 c 256
 333 -30 335 -11 335 34 c 256
 335 329 400 825 532 1002 c 257
 510 1036 485 1053 449 1053 c 256
 256 1053 143 540 143 -38 c 256
 143 -115 251 -162 421 -162 c 256
EndSplineSet
EndChar

StartChar: C
Encoding: 67 67 15
Width: 1214
VWidth: 0
Flags: HW
PickledData: "(dp1
S'com.typemytype.robofont.layerData'
p2
(dp3
s."
AnchorPoint: "top" 939 1343 basechar 0
AnchorPoint: "bot" 605 -143 basechar 0
LayerCount: 2
Fore
SplineSet
603 -192 m 256
 868 -192 1176 -10 1256 232 c 256
 1269 270 1209 298 1184 275 c 256
 1035 129 895 -36 648 -36 c 256
 473 -36 324 114 318 366 c 256
 308 821 613 1217 942 1217 c 256
 1043 1217 1099 1159 1099 1060 c 256
 1099 913 986 782 842 782 c 256
 771 782 723 774 723 719 c 256
 723 641 765 634 853 634 c 256
 1068 634 1256 853 1256 1073 c 256
 1256 1251 1141 1373 967 1373 c 256
 518 1373 117 942 120 351 c 256
 122 -29 381 -192 603 -192 c 256
EndSplineSet
EndChar

StartChar: D
Encoding: 68 68 21
Width: 1243
VWidth: 0
Flags: HW
PickledData: "(dp1
S'com.typemytype.robofont.layerData'
p2
(dp3
s."
AnchorPoint: "top" 691 1343 basechar 0
AnchorPoint: "mid" 360 566 basechar 0
AnchorPoint: "bot" 427 -73 basechar 0
LayerCount: 2
Fore
SplineSet
410 -97 m 256
 819 -97 1242 224 1236 783 c 256
 1232 1147 985 1391 523 1383 c 256
 333 1379 201 1319 96 1197 c 256
 85 1184 31 1093 30 1028 c 256
 29 999 43 955 81 955 c 256
 126 955 181 1061 218 1099 c 256
 312 1197 435 1221 528 1223 c 256
 884 1231 1058 1012 1064 769 c 256
 1074 396 774 34 390 34 c 256
 328 34 324 63 325 125 c 256
 329 381 449 896 569 1054 c 257
 547 1092 518 1112 484 1112 c 256
 457 1112 427 1100 393 1077 c 257
 247 868 147 358 141 10 c 256
 140 -19 146 -28 167 -38 c 256
 231 -68 315 -97 410 -97 c 256
EndSplineSet
EndChar

StartChar: Delta
Encoding: 8710 8710 25
Width: 1450
VWidth: 0
Flags: HW
LayerCount: 2
Fore
SplineSet
302 0 m 258
 1272 0 l 258
 1339 0 1367 39 1366 101 c 257
 980 1015 l 258
 950 1085 862 1117 810 1030 c 256
 666 792 520 553 405 368 c 256
 314 222 244 118 229 83 c 257
 228 37 254 0 302 0 c 258
441 162 m 257
 520 285 740 652 867 865 c 257
 1161 162 l 257
 441 162 l 257
EndSplineSet
EndChar

StartChar: E
Encoding: 69 69 26
Width: 1132
VWidth: 0
Flags: HW
PickledData: "(dp1
S'com.typemytype.robofont.layerData'
p2
(dp3
s."
AnchorPoint: "top" 808 1343 basechar 0
AnchorPoint: "ogonek" 663 -179 basechar 0
AnchorPoint: "bot" 544 -178 basechar 0
LayerCount: 2
Fore
SplineSet
518 -212 m 256
 791 -212 1180 -40 1330 147 c 256
 1343 163 1349 182 1349 201 c 256
 1349 244 1320 286 1282 286 c 256
 1264 286 1244 276 1224 253 c 256
 1096 99 760 -43 524 -43 c 256
 326 -43 292 88 292 186 c 256
 292 374 501 542 740 542 c 256
 816 542 853 591 853 638 c 256
 853 674 832 709 789 718 c 256
 555 770 457 846 457 1015 c 256
 457 1202 656 1309 845 1309 c 256
 947 1309 1060 1281 1126 1221 c 257
 1030 1181 1016 1103 1041 1039 c 256
 1056 1002 1104 979 1138 978 c 256
 1182 976 1286 987 1286 1146 c 256
 1286 1341 1072 1442 853 1442 c 256
 574 1442 257 1290 257 1000 c 256
 257 788 352 690 619 654 c 257
 340 647 83 411 83 163 c 256
 83 -92 223 -212 518 -212 c 256
EndSplineSet
EndChar

StartChar: Eng
Encoding: 330 330 35
Width: 1102
VWidth: 0
Flags: HW
LayerCount: 2
Fore
SplineSet
231 -648 m 256
 404 -660 626 -472 788 -52 c 257
 927 31 1027 54 1131 107 c 256
 1228 157 1206 234 1140 217 c 256
 1078 202 929 135 816 69 c 257
 990 568 1136 909 1132 1118 c 256
 1130 1224 1061 1305 937 1315 c 256
 594 1343 422 984 309 680 c 257
 353 856 389 1039 388 1133 c 256
 386 1247 293 1315 195 1307 c 256
 33 1293 -85 1169 -148 1035 c 256
 -195 934 -44 874 -36 898 c 256
 -3 991 109 1171 180 1170 c 256
 229 1169 229 1073 230 1053 c 256
 234 811 28 251 -87 -34 c 256
 -87 -35 -38 -85 26 -85 c 256
 108 -85 121 -19 148 46 c 256
 366 588 593 1137 868 1137 c 256
 924 1137 947 1095 948 1048 c 256
 950 904 832 569 627 -4 c 257
 316 -166 122 -390 109 -527 c 256
 102 -595 141 -642 231 -648 c 256
252 -538 m 256
 229 -538 218 -524 219 -500 c 256
 223 -423 355 -245 593 -118 c 257
 536 -268 398 -538 252 -538 c 256
EndSplineSet
EndChar

StartChar: Euro
Encoding: 8364 8364 38
Width: 1299
VWidth: 0
Flags: HW
LayerCount: 2
Fore
SplineSet
609 -134 m 256
 836 -152 1012 -17 1138 92 c 256
 1156 107 1172 127 1172 155 c 256
 1172 207 1109 251 1066 214 c 256
 967 131 821 43 645 43 c 256
 468 43 388 152 388 330 c 257
 388 358 l 257
 657 358 l 258
 715 358 746 384 746 440 c 256
 746 478 716 493 680 493 c 258
 408 493 l 257
 415 525 423 553 433 582 c 257
 702 582 l 258
 760 582 792 608 792 664 c 256
 792 702 761 717 725 717 c 258
 484 717 l 257
 556 879 655 1098 881 1098 c 256
 980 1098 1052 1069 1052 973 c 256
 1052 897 1007 840 1007 776 c 256
 1007 714 1109 689 1143 741 c 256
 1179 798 1219 888 1219 984 c 256
 1219 1169 1097 1254 905 1254 c 256
 600 1254 391 981 275 717 c 257
 187 717 l 258
 144 717 119 700 119 659 c 256
 119 613 139 582 187 582 c 258
 226 582 l 257
 217 553 210 525 204 493 c 257
 141 493 l 258
 98 493 74 476 74 435 c 256
 74 389 93 358 141 358 c 258
 187 358 l 257
 186 337 l 257
 186 51 341 -113 609 -134 c 256
EndSplineSet
EndChar

StartChar: F
Encoding: 70 70 39
Width: 1061
VWidth: 0
Flags: HW
PickledData: "(dp1
S'com.typemytype.robofont.layerData'
p2
(dp3
s."
AnchorPoint: "top" 974 1358 basechar 0
LayerCount: 2
Fore
SplineSet
268 -139 m 256
 600 -147 674 136 787 524 c 257
 868 524 960 538 1040 538 c 256
 1069 538 1084 571 1084 605 c 256
 1084 643 1079 672 1040 672 c 258
 815 672 l 257
 885 939 914 1115 938 1256 c 257
 1132 1277 1294 1252 1520 1231 c 256
 1564 1227 1586 1272 1586 1315 c 256
 1586 1433 1125 1413 1004 1413 c 256
 169 1413 -81 885 136 571 c 256
 183 503 371 509 326 568 c 256
 124 833 296 1186 788 1242 c 257
 763 1151 684 833 638 659 c 257
 590 653 488 643 488 582 c 256
 488 539 532 524 575 524 c 258
 606 524 l 257
 521 159 432 68 311 51 c 256
 226 39 168 78 110 106 c 256
 62 129 -12 30 13 -18 c 256
 49 -86 175 -137 268 -139 c 256
EndSplineSet
EndChar

StartChar: G
Encoding: 71 71 41
Width: 1458
VWidth: 0
Flags: HW
PickledData: "(dp1
S'com.typemytype.robofont.layerData'
p2
(dp3
s."
AnchorPoint: "top" 1087 1343 basechar 0
AnchorPoint: "bot" 650 -658 basechar 0
LayerCount: 2
Fore
SplineSet
596 -636 m 256
 1029 -798 1273 -517 1413 244 c 256
 1445 414 1400 449 1152 449 c 256
 1089 449 1028 425 1028 365 c 256
 1028 305 1071 291 1147 291 c 256
 1242 291 1258 284 1248 237 c 258
 1235 178 l 257
 822 -29 323 -57 323 413 c 256
 323 1189 1226 1400 1226 1058 c 256
 1226 959 1274 947 1322 947 c 256
 1378 947 1423 968 1423 1051 c 256
 1423 1687 104 1383 120 391 c 256
 132 -344 1090 -110 1212 55 c 257
 1059 -503 902 -543 638 -449 c 256
 549 -417 444 -580 596 -636 c 256
EndSplineSet
EndChar

StartChar: H
Encoding: 72 72 48
Width: 1571
VWidth: 0
Flags: HW
PickledData: "(dp1
S'com.typemytype.robofont.layerData'
p2
(dp3
s."
AnchorPoint: "top" 1016 1343 basechar 0
LayerCount: 2
Fore
SplineSet
1556 -146 m 256
 1611 -108 1555 2 1501 -20 c 256
 1313 -97 957 -305 1094 266 c 258
 1222 798 l 258
 1324 1221 1662 1239 1632 1020 c 256
 1599 783 1268 456 259 580 c 256
 177 590 122 457 225 444 c 256
 1375 299 1777 736 1798 1036 c 256
 1821 1362 1249 1497 1072 824 c 258
 918 241 l 258
 761 -356 1214 -383 1556 -146 c 256
226 -214 m 256
 309 -228 334 -171 361 -87 c 258
 631 753 l 258
 726 1048 692 1236 477 1324 c 256
 213 1431 -152 1296 -210 897 c 256
 -226 789 -88 755 -62 894 c 256
 -4 1202 272 1273 425 1189 c 256
 515 1139 562 1039 440 710 c 257
 173 -32 l 258
 118 -180 178 -206 226 -214 c 256
EndSplineSet
EndChar

StartChar: Hbar
Encoding: 294 294 49
Width: 1503
VWidth: 0
Flags: HW
LayerCount: 2
Fore
SplineSet
227 795 m 258
 1293 816 l 258
 1367 817 1367 934 1303 931 c 258
 239 889 l 258
 159 885 164 794 227 795 c 258
EndSplineSet
Refer: 48 72 N 1 0 0 1 0 0 2
EndChar

StartChar: I
Encoding: 73 73 51
Width: 701
VWidth: 0
Flags: HW
PickledData: "(dp1
S'com.typemytype.robofont.layerData'
p2
(dp3
s."
AnchorPoint: "top" 668 1343 basechar 0
AnchorPoint: "ogonek" 350 0 basechar 0
LayerCount: 2
Fore
SplineSet
42 -60 m 256
 73 -70 397 -23 606 -15 c 256
 703 -11 707 93 665 109 c 256
 623 125 456 123 433 119 c 257
 455 361 694 1181 726 1185 c 256
 802 1194 983 1191 1000 1234 c 256
 1022 1291 1025 1360 969 1359 c 256
 913 1358 399 1346 347 1341 c 256
 295 1336 281 1226 307 1197 c 256
 336 1165 501 1181 570 1181 c 257
 448 912 326 464 274 113 c 257
 210 110 19 92 4 39 c 256
 -10 -11 11 -50 42 -60 c 256
EndSplineSet
EndChar

StartChar: IJ
Encoding: 306 306 52
Width: 1725
VWidth: 0
Flags: HW
AnchorPoint: "ogonek" 350 0 basechar 0
LayerCount: 2
Fore
SplineSet
1106 -356 m 256
 1413 -356 1673 547 1840 1198 c 257
 1887 1197 1921 1197 1946 1198 c 256
 2022 1200 2023 1208 2090 1224 c 256
 2107 1228 2169 1354 2067 1354 c 256
 2013 1354 1948 1354 1874 1355 c 257
 1865 1375 1843 1390 1802 1390 c 256
 1768 1390 1745 1385 1730 1357 c 257
 1479 1359 1184 1362 975 1359 c 256
 913 1358 399 1346 347 1341 c 256
 295 1336 275 1225 301 1196 c 256
 330 1164 495 1180 564 1180 c 257
 442 911 326 464 274 113 c 257
 210 110 19 92 4 39 c 256
 -10 -11 11 -50 42 -60 c 256
 73 -70 397 -16 606 -8 c 256
 703 -4 707 100 665 116 c 256
 623 132 456 123 433 119 c 257
 455 361 695 1132 720 1184 c 257
 756 1188 818 1189 873 1195 c 257
 1031 1203 1344 1209 1392 1208 c 258
 1686 1201 l 257
 1590 799 1299 -181 1079 -181 c 256
 969 -181 949 -11 936 176 c 256
 930 273 807 281 811 159 c 256
 820 -131 890 -356 1106 -356 c 256
EndSplineSet
EndChar

StartChar: J
Encoding: 74 74 62
Width: 1038
VWidth: 0
Flags: HW
PickledData: "(dp1
S'com.typemytype.robofont.layerData'
p2
(dp3
s."
AnchorPoint: "top" 1088 1343 basechar 0
LayerCount: 2
Fore
SplineSet
426 -398 m 256
 755 -399 1025 656 1189 1312 c 256
 1198 1348 1182 1390 1114 1390 c 256
 1062 1390 1039 1377 1024 1296 c 256
 975 1024 646 -224 399 -224 c 256
 289 -224 269 -124 256 42 c 256
 248 139 126 147 130 25 c 256
 139 -244 210 -399 426 -398 c 256
1403 1200 m 256
 1463 1211 1488 1237 1487 1283 c 256
 1486 1321 1466 1354 1401 1354 c 256
 1134 1354 880 1383 660 1389 c 256
 288 1400 3 1339 -81 979 c 256
 -103 886 5 880 28 935 c 256
 114 1141 207 1222 725 1196 c 256
 994 1183 1271 1176 1403 1200 c 256
EndSplineSet
EndChar

StartChar: K
Encoding: 75 75 64
Width: 1322
VWidth: 0
Flags: HW
PickledData: "(dp1
S'com.typemytype.robofont.layerData'
p2
(dp3
s."
AnchorPoint: "top" 1088 1343 basechar 0
AnchorPoint: "bot" 614 -283 basechar 0
LayerCount: 2
Fore
SplineSet
1250 -298 m 256
 1279 -298 1502 -283 1502 -209 c 256
 1502 -156 1486 -136 1460 -131 c 256
 1420 -124 1358 -153 1287 -153 c 256
 1059 -153 944 73 792 603 c 257
 1166 789 1463 1116 1519 1240 c 256
 1546 1302 1558 1376 1482 1376 c 256
 1430 1376 1398 1318 1348 1250 c 256
 1236 1100 979 854 656 680 c 257
 668 809 701 1173 701 1329 c 256
 701 1378 662 1403 612 1396 c 256
 37 1319 -118 1008 -76 712 c 256
 -68 656 -24 616 18 624 c 256
 80 636 103 658 98 696 c 256
 70 922 104 1168 523 1253 c 257
 523 363 356 -98 48 -98 c 256
 8 -98 -22 -79 -55 -79 c 256
 -98 -79 -144 -148 -144 -191 c 256
 -144 -251 8 -261 73 -261 c 256
 383 -261 543 37 643 603 c 257
 765 13 939 -298 1250 -298 c 256
EndSplineSet
EndChar

StartChar: L
Encoding: 76 76 66
Width: 1274
VWidth: 0
Flags: HW
PickledData: "(dp1
S'com.typemytype.robofont.layerData'
p2
(dp3
s."
AnchorPoint: "top" 1365 1412 basechar 0
AnchorPoint: "mid" 896 359 basechar 0
AnchorPoint: "bot" 837 -315 basechar 0
LayerCount: 2
Fore
SplineSet
387 -213 m 256
 884 -213 1009 271 988 727 c 257
 988 1093 1051 1229 1223 1280 c 256
 1706 1424 1764 630 584 906 c 256
 504 925 465 794 536 778 c 256
 2005 443 1923 1540 1245 1443 c 256
 1025 1411 811 1262 811 849 c 256
 811 418 834 -83 387 -83 c 256
 237 -83 233 94 341 95 c 256
 713 99 1495 -802 1818 -230 c 256
 1860 -156 1781 -111 1729 -173 c 256
 1412 -555 777 242 337 242 c 256
 28 242 26 -213 387 -213 c 256
EndSplineSet
EndChar

StartChar: Lslash
Encoding: 321 321 71
Width: 1274
VWidth: 0
Flags: HW
LayerCount: 2
Fore
SplineSet
1142 472 m 258
 1164 482 1175 500 1175 516 c 256
 1175 543 1151 569 1121 569 c 256
 1115 569 1107 568 1100 564 c 258
 670 365 l 258
 640 351 627 330 627 310 c 256
 627 285 647 262 675 262 c 256
 681 262 692 263 700 267 c 258
 1142 472 l 258
EndSplineSet
Refer: 66 76 N 1 0 0 1 0 0 2
EndChar

StartChar: M
Encoding: 77 77 72
Width: 1768
VWidth: 0
Flags: HW
PickledData: "(dp1
S'com.typemytype.robofont.layerData'
p2
(dp3
s."
AnchorPoint: "top" 1288 1343 basechar 0
LayerCount: 2
Fore
SplineSet
318 24 m 256
 545 769 708 1130 907 1130 c 256
 1048 1130 1018 897 960 704 c 258
 740 -34 l 258
 740 -35 791 -85 848 -85 c 256
 919 -85 934 3 946 46 c 256
 1106 600 1292 1124 1483 1138 c 256
 1551 1143 1591 1096 1587 1049 c 256
 1566 777 1380 403 1361 97 c 256
 1353 -39 1435 -141 1623 -141 c 256
 1730 -141 1829 -80 1891 -9 c 256
 1986 99 1883 172 1817 92 c 256
 1766 30 1687 -3 1623 1 c 256
 1559 5 1511 47 1523 132 c 256
 1564 427 1739 757 1760 1062 c 256
 1767 1168 1734 1327 1530 1311 c 256
 1393 1301 1211 1131 1113 822 c 257
 1190 1134 1132 1321 954 1315 c 256
 760 1308 639 1185 475 778 c 257
 559 1077 592 1294 358 1316 c 256
 199 1331 21 1193 -6 1002 c 256
 -17 924 108 871 116 898 c 256
 154 1039 239 1185 334 1171 c 256
 417 1159 403 940 301 610 c 258
 94 -55 l 258
 94 -56 151 -106 215 -106 c 256
 297 -106 305 -19 318 24 c 256
EndSplineSet
EndChar

StartChar: N
Encoding: 78 78 74
Width: 1241
VWidth: 0
Flags: HW
PickledData: "(dp1
S'com.typemytype.robofont.layerData'
p2
(dp3
s."
AnchorPoint: "top" 1017 1343 basechar 0
LayerCount: 2
Fore
SplineSet
165 -85 m 256
 247 -85 260 -19 287 46 c 256
 505 588 732 1137 1007 1137 c 256
 1063 1137 1087 1095 1088 1048 c 256
 1090 904 899 529 842 174 c 256
 821 38 907 -64 1095 -64 c 256
 1181 -64 1299 -9 1368 60 c 256
 1475 166 1369 249 1296 169 c 256
 1183 44 967 40 1006 209 c 256
 1084 553 1275 909 1271 1118 c 256
 1269 1224 1201 1305 1077 1315 c 256
 734 1343 562 984 449 680 c 257
 493 856 529 1039 528 1133 c 256
 526 1247 446 1314 348 1314 c 256
 207 1314 68 1204 -9 1035 c 256
 -55 933 96 876 104 898 c 256
 172 1082 248 1171 319 1170 c 256
 368 1169 369 1073 370 1053 c 256
 374 811 167 251 52 -34 c 256
 52 -35 101 -85 165 -85 c 256
EndSplineSet
EndChar

StartChar: O
Encoding: 79 79 79
Width: 1354
VWidth: 0
Flags: HW
PickledData: "(dp1
S'com.typemytype.robofont.layerData'
p2
(dp3
s."
AnchorPoint: "top" 878 1343 basechar 0
AnchorPoint: "ogonek" 705 -187 basechar 0
LayerCount: 2
Fore
SplineSet
669 -49 m 256
 437 -41 328 188 328 444 c 256
 328 781 525 1210 876 1210 c 256
 1104 1210 1210 985 1203 685 c 256
 1195 341 1011 -62 669 -49 c 256
656 -212 m 256
 1128 -224 1381 249 1387 674 c 256
 1392 1061 1226 1370 866 1370 c 256
 403 1370 150 903 143 441 c 256
 138 104 307 -203 656 -212 c 256
EndSplineSet
Substitution2: "Single Substitution lookup 3 subtable" ordmasculine
EndChar

StartChar: OE
Encoding: 338 338 80
Width: 2146
VWidth: 0
Flags: HW
LayerCount: 2
Fore
SplineSet
656 -212 m 256
 894 -217 1080 -90 1156 34 c 257
 1184 -113 1316 -212 1532 -212 c 256
 1805 -212 2194 -40 2344 147 c 256
 2357 163 2363 182 2363 201 c 256
 2363 244 2334 286 2296 286 c 256
 2278 286 2259 276 2239 253 c 256
 2111 99 1775 -43 1539 -43 c 256
 1341 -43 1270 88 1270 186 c 257
 1323 277 1375 483 1378 552 c 257
 1438 549 1565 542 1649 542 c 256
 1725 542 1763 591 1763 638 c 256
 1763 674 1741 718 1684 718 c 258
 1385 718 l 257
 1384 771 1370 902 1359 948 c 257
 1359 1135 1592 1303 1856 1303 c 256
 1958 1303 2056 1273 2122 1213 c 257
 2066 1082 l 258
 2038 1016 2048 985 2110 985 c 256
 2154 985 2283 994 2283 1153 c 256
 2283 1348 2087 1442 1868 1442 c 256
 1631 1442 1338 1332 1264 1121 c 257
 1229 1253 1095 1370 866 1370 c 256
 403 1370 150 903 143 441 c 256
 138 104 307 -205 656 -212 c 256
669 -49 m 256
 437 -41 328 188 328 444 c 256
 328 781 525 1210 876 1210 c 256
 1104 1210 1208 985 1203 685 c 256
 1195 243 1011 -62 669 -49 c 256
EndSplineSet
EndChar

StartChar: Omega
Encoding: 8486 8486 88
Width: 1801
VWidth: 0
Flags: HW
LayerCount: 2
Fore
SplineSet
1376 88 m 257
 1916 422 1845 1419 1069 1419 c 256
 312 1419 79 463 531 108 c 257
 445 110 384 113 333 111 c 256
 294 110 283 70 288 40 c 256
 292 18 328 -25 369 -26 c 256
 498 -30 607 -22 902 -19 c 257
 895 95 l 257
 194 162 381 1272 1064 1272 c 256
 1744 1272 1748 163 1038 95 c 257
 1019 -17 l 257
 1249 -48 1430 -58 1562 -40 c 256
 1602 -34 1640 2 1646 25 c 256
 1654 57 1648 101 1604 97 c 256
 1544 91 1472 86 1376 88 c 257
EndSplineSet
EndChar

StartChar: Oslash
Encoding: 216 216 89
Width: 1354
VWidth: 0
Flags: HW
PickledData: "(dp1
S'com.typemytype.robofont.layerData'
p2
(dp3
s."
LayerCount: 2
Fore
SplineSet
231 -383 m 258
 1429 1450 l 257
 1476 1513 1380 1550 1356 1497 c 257
 128 -312 l 257
 72 -409 184 -454 231 -383 c 258
EndSplineSet
Refer: 79 79 N 1 0 0 1 0 0 2
EndChar

StartChar: P
Encoding: 80 80 92
Width: 1194
VWidth: 0
Flags: HW
PickledData: "(dp1
S'com.typemytype.robofont.layerData'
p2
(dp3
s."
AnchorPoint: "top" 917 1343 basechar 0
LayerCount: 2
Fore
SplineSet
489 -109 m 256
 350 -109 328 208 328 433 c 256
 328 793 454 1273 819 1295 c 256
 1100 1311 1263 1202 1263 1006 c 256
 1263 819 1092 682 825 656 c 257
 824 760 915 902 942 1003 c 257
 941 1032 901 1046 862 1046 c 256
 728 1046 722 856 668 662 c 257
 627 663 540 726 494 726 c 256
 475 726 475 702 475 670 c 256
 475 576 565 560 650 524 c 257
 604 179 621 -109 489 -109 c 256
465 -256 m 256
 679 -256 744 -58 773 200 c 256
 795 384 803 531 821 534 c 256
 1206 577 1439 765 1439 1021 c 256
 1439 1277 1208 1474 826 1460 c 256
 386 1444 158 975 158 433 c 256
 158 63 242 -256 465 -256 c 256
EndSplineSet
EndChar

StartChar: Q
Encoding: 81 81 94
Width: 1435
VWidth: 0
Flags: HW
LayerCount: 2
Fore
SplineSet
1978 -631 m 256
 2100 -539 2111 -472 2131 -438 c 257
 2137 -423 2132 -407 2124 -396 c 256
 2103 -369 2055 -359 2031 -377 c 256
 2025 -382 2020 -388 2018 -395 c 257
 1989 -428 1963 -459 1931 -481 c 256
 1806 -575 1529 -477 897 9 c 256
 865 33 771 -66 804 -90 c 256
 1392 -529 1723 -823 1978 -631 c 256
EndSplineSet
Refer: 79 79 N 1 0 0 1 0 0 2
EndChar

StartChar: R
Encoding: 82 82 95
Width: 1496
VWidth: 0
Flags: HW
PickledData: "(dp1
S'com.typemytype.robofont.layerData'
p2
(dp3
s."
AnchorPoint: "top" 950 1343 basechar 0
LayerCount: 2
Fore
SplineSet
456 -276 m 256
 787 -276 763 239 846 764 c 256
 861 857 944 920 948 979 c 256
 949 1019 918 1039 872 1039 c 256
 775 1039 715 883 691 785 c 256
 645 577 611 -112 489 -113 c 256
 389 -114 333 98 332 419 c 256
 331 908 538 1270 906 1270 c 256
 1208 1270 1286 1119 1261 961 c 256
 1234 790 1099 754 789 754 c 256
 725 754 625 775 596 775 c 256
 564 775 557 742 556 716 c 256
 552 615 759 614 926 624 c 257
 987 177 1279 -407 1577 -407 c 256
 1733 -407 1844 -287 1887 -218 c 256
 1901 -196 1889 -166 1867 -148 c 256
 1845 -129 1815 -121 1796 -141 c 256
 1713 -230 1651 -237 1591 -229 c 256
 1433 -209 1193 141 1071 641 c 257
 1268 674 1436 744 1466 971 c 256
 1497 1201 1286 1443 897 1443 c 256
 481 1443 170 1070 153 406 c 257
 138 -31 260 -276 456 -276 c 256
EndSplineSet
EndChar

StartChar: S
Encoding: 83 83 99
Width: 1303
VWidth: 0
Flags: HW
PickledData: "(dp1
S'com.typemytype.robofont.layerData'
p2
(dp3
s."
AnchorPoint: "top" 828 1343 basechar 0
AnchorPoint: "bot" 648 -183 basechar 0
LayerCount: 2
Fore
SplineSet
638 -233 m 256
 980 -233 1232 -79 1232 178 c 256
 1232 414 1069 484 830 618 c 256
 541 779 469 800 469 941 c 256
 469 1060 655 1152 817 1152 c 256
 968 1152 1102 1089 1102 981 c 256
 1102 913 1073 867 1037 827 c 256
 966 747 1083 640 1194 758 c 256
 1239 806 1281 884 1280 981 c 256
 1276 1192 1067 1302 796 1295 c 256
 533 1289 262 1155 262 924 c 256
 262 708 428 630 620 517 c 256
 812 404 1026 344 1026 164 c 256
 1026 23 915 -83 650 -83 c 256
 421 -83 281 5 281 171 c 256
 281 225 309 262 309 310 c 256
 309 345 284 364 249 364 c 256
 148 364 84 269 84 170 c 256
 84 -105 357 -233 638 -233 c 256
EndSplineSet
EndChar

StartChar: T
Encoding: 84 84 107
Width: 991
VWidth: 0
Flags: HW
PickledData: "(dp1
S'com.typemytype.robofont.layerData'
p2
(dp3
s."
AnchorPoint: "top" 948 1343 basechar 0
AnchorPoint: "mid" 730 608 basechar 0
AnchorPoint: "bot" 614 -214 basechar 0
LayerCount: 2
Fore
SplineSet
111 881 m 256
 169 1018 287 1161 825 1126 c 256
 1029 1113 1437 1091 1573 1128 c 256
 1635 1145 1655 1181 1654 1231 c 256
 1653 1263 1619 1284 1574 1284 c 256
 1200 1284 841 1336 557 1316 c 256
 273 1296 65 1204 -7 916 c 256
 -27 836 92 838 111 881 c 256
622 -178 m 256
 686 -178 725 -143 736 -74 c 256
 750 13 681 348 979 1163 c 257
 844 1173 l 257
 479 437 503 -21 519 -84 c 256
 533 -138 560 -178 622 -178 c 256
EndSplineSet
EndChar

StartChar: Thorn
Encoding: 222 222 112
Width: 851
VWidth: 0
Flags: HW
LayerCount: 2
Fore
SplineSet
356 -251 m 256
 570 -251 630 -58 659 200 c 256
 681 384 689 531 707 534 c 257
 1092 577 1330 765 1330 1021 c 256
 1330 1246 1151 1425 849 1456 c 257
 869 1588 882 1687 883 1702 c 256
 884 1731 874 1740 845 1740 c 256
 765 1740 724 1647 687 1458 c 257
 266 1422 52 963 52 433 c 256
 52 63 133 -251 356 -251 c 256
380 -111 m 256
 241 -111 215 208 215 433 c 256
 215 775 332 1227 657 1289 c 257
 631 1125 602 917 559 662 c 257
 518 663 430 726 384 726 c 256
 365 726 365 702 365 670 c 256
 365 576 456 560 541 524 c 257
 495 179 512 -111 380 -111 c 256
715 657 m 257
 742 777 789 1055 825 1294 c 257
 1036 1277 1154 1173 1154 1006 c 256
 1154 820 980 684 715 657 c 257
EndSplineSet
EndChar

StartChar: U
Encoding: 85 85 113
Width: 1294
VWidth: 0
Flags: HW
PickledData: "(dp1
S'com.typemytype.robofont.layerData'
p2
(dp3
s."
AnchorPoint: "top" 857 1343 basechar 0
AnchorPoint: "ogonek" 597 -108 basechar 0
LayerCount: 2
Fore
SplineSet
587 31 m 256
 200 31 341 748 576 1132 c 256
 635 1228 477 1254 419 1162 c 256
 133 710 -7 -115 568 -130 c 256
 1343 -151 1659 1436 1114 1418 c 256
 590 1401 911 414 1621 988 c 256
 1675 1031 1623 1119 1562 1073 c 256
 1023 671 857 1269 1088 1278 c 256
 1404 1291 1155 31 587 31 c 256
164 883 m 258
 512 1112 l 258
 557 1142 520 1241 462 1204 c 258
 118 984 l 258
 60 947 91 835 164 883 c 258
EndSplineSet
EndChar

StartChar: V
Encoding: 86 86 124
Width: 1166
VWidth: 0
Flags: HW
LayerCount: 2
Fore
SplineSet
989 592 m 257
 886 394 686 87 533 61 c 256
 459 48 402 114 402 309 c 256
 402 710 611 1048 628 1070 c 256
 650 1099 552 1202 461 1070 c 256
 419 1010 241 694 241 325 c 256
 241 62 326 -77 507 -76 c 257
 747 -64 942 221 1116 531 c 257
 1410 1076 1321 1411 1114 1418 c 257
 590 1419 859 414 1599 988 c 256
 1655 1031 1608 1119 1544 1073 c 256
 984 671 850 1278 1081 1278 c 256
 1137 1278 1240 1093 989 592 c 257
76 726 m 258
 545 1017 l 258
 591 1045 555 1145 496 1109 c 258
 30 827 l 258
 -30 791 2 679 76 726 c 258
EndSplineSet
EndChar

StartChar: W
Encoding: 87 87 125
Width: 1977
VWidth: 0
Flags: HW
PickledData: "(dp1
S'com.typemytype.robofont.layerData'
p2
(dp3
s."
AnchorPoint: "top" 1313 1343 basechar 0
LayerCount: 2
Fore
SplineSet
1257 -91 m 257
 1503 -79 1704 212 1878 524 c 257
 2177 1076 2090 1432 1865 1433 c 256
 1319 1434 1588 442 2357 976 c 257
 2426 1028 2365 1135 2286 1078 c 257
 1712 677 1637 1298 1845 1298 c 256
 1924 1298 1981 1087 1737 598 c 257
 1635 403 1444 99 1282 76 c 256
 1176 61 1163 291 1163 388 c 256
 1163 434 1165 475 1170 512 c 256
 1194 702 1273 790 1297 906 c 256
 1314 987 1277 1032 1230 1033 c 256
 1198 1034 1160 1013 1133 967 c 256
 1055 838 1001 574 1009 342 c 256
 1017 109 1088 -92 1257 -91 c 257
494 -91 m 257
 738 -79 957 226 1117 571 c 257
 1063 780 l 257
 1041 722 1016 665 990 612 c 256
 845 307 657 92 518 76 c 256
 448 68 396 125 396 311 c 256
 396 707 607 1039 624 1061 c 256
 657 1106 542 1227 438 1078 c 256
 397 1018 215 698 215 325 c 256
 215 57 306 -92 494 -91 c 257
70 713 m 257
 539 1004 l 258
 597 1040 551 1167 476 1121 c 258
 10 840 l 258
 -63 797 -22 655 70 713 c 257
EndSplineSet
EndChar

StartChar: X
Encoding: 88 88 130
Width: 1222
VWidth: 0
Flags: HW
LayerCount: 2
Fore
SplineSet
-43 -196 m 256
 104 -196 214 -167 447 121 c 256
 700 433 997 820 1231 1057 c 256
 1391 1219 1219 1299 1138 1199 c 257
 912 881 602 499 384 237 c 256
 222 43 108 -15 -59 -15 c 256
 -145 -15 -151 -196 -43 -196 c 256
8 874 m 256
 266 1113 298 1058 354 925 c 258
 734 12 l 258
 841 -244 980 -234 1160 -57 c 258
 1384 162 l 258
 1422 199 1340 263 1320 244 c 258
 1095 32 l 258
 992 -65 942 12 896 127 c 258
 565 1002 l 258
 480 1225 249 1283 -60 965 c 256
 -113 910 -31 838 8 874 c 256
EndSplineSet
EndChar

StartChar: Y
Encoding: 89 89 131
Width: 1156
VWidth: 0
Flags: HW
PickledData: "(dp1
S'com.typemytype.robofont.layerData'
p2
(dp3
s."
AnchorPoint: "top" 872 1343 basechar 0
LayerCount: 2
Fore
SplineSet
468 -494 m 256
 468 -334 978 169 1382 453 c 256
 1420 479 1379 578 1330 545 c 256
 1058 362 328 -239 328 -561 c 256
 328 -635 374 -696 461 -696 c 256
 726 -696 840 -393 1000 220 c 257
 1214 1082 l 258
 1235 1167 1233 1219 1139 1219 c 256
 1101 1219 1071 1188 1056 1124 c 258
 887 429 l 257
 584 38 19 -22 508 1188 c 256
 526 1231 480 1242 446 1242 c 256
 392 1242 370 1207 355 1180 c 256
 -129 296 298 -294 854 254 c 257
 729 -262 564 -550 508 -550 c 256
 486 -550 468 -537 468 -494 c 256
EndSplineSet
EndChar

StartChar: Z
Encoding: 90 90 136
Width: 1199
VWidth: 0
Flags: HW
PickledData: "(dp1
S'com.typemytype.robofont.layerData'
p2
(dp3
s."
AnchorPoint: "top" 1032 1343 basechar 0
LayerCount: 2
Fore
SplineSet
285 265 m 256
 202 183 96 66 125 32 c 256
 150 2 183 -6 219 -1 c 257
 396 104 l 257
 694 -49 994 -277 1418 -10 c 256
 1429 -3 1480 39 1461 94 c 256
 1443 147 1393 144 1360 122 c 256
 1048 -88 902 10 518 207 c 257
 510 223 l 257
 674 395 1102 872 1419 1130 c 257
 1340 1234 1326 1210 1189 1113 c 256
 796 833 400 380 285 265 c 256
1487 1121 m 256
 1565 1132 1608 1156 1604 1216 c 256
 1600 1269 1543 1283 1492 1284 c 256
 1248 1288 978 1316 748 1320 c 256
 399 1325 142 1262 59 916 c 256
 40 836 154 838 172 881 c 256
 228 1018 340 1141 858 1126 c 256
 1128 1118 1398 1108 1487 1121 c 256
EndSplineSet
EndChar

StartChar: a
Encoding: 97 97 140
Width: 717
VWidth: 0
Flags: HW
PickledData: "(dp1
S'com.typemytype.robofont.layerData'
p2
(dp3
s."
AnchorPoint: "top" 508 743 basechar 0
AnchorPoint: "ogonek" 602 0 basechar 0
LayerCount: 2
Fore
SplineSet
228 -11 m 256
 323 -15 414 40 456 127 c 256
 457 129 458 132 459 134 c 257
 469 52 524 0 602 0 c 256
 716 0 828 105 878 175 c 257
 881 181 882 191 882 201 c 256
 882 239 864 297 834 297 c 256
 826 297 815 291 805 279 c 257
 771 234 688 142 620 142 c 256
 588 142 581 178 587 212 c 258
 645 566 l 258
 652 607 629 631 588 631 c 258
 540 631 l 257
 540 650 545 686 456 686 c 256
 262 686 36 459 44 202 c 256
 48 86 108 -5 228 -11 c 256
270 133 m 256
 210 135 197 182 197 227 c 256
 197 356 336 559 503 559 c 257
 449 330 l 258
 427 238 353 130 270 133 c 256
EndSplineSet
Substitution2: "Single Substitution lookup 2 subtable" ordfeminine
EndChar

StartChar: acute
Encoding: 180 180 144
Width: 426
VWidth: 0
Flags: HW
PickledData: "(dp1
S'com.typemytype.robofont.layerData'
p2
(dp3
s."
AnchorPoint: "top" 201 704 mark 0
LayerCount: 2
Fore
SplineSet
258 872 m 258
 503 1105 l 258
 596 1193 436 1312 376 1210 c 258
 199 923 l 258
 161 863 215 831 258 872 c 258
EndSplineSet
EndChar

StartChar: ae
Encoding: 230 230 146
Width: 997
VWidth: 0
Flags: HW
AnchorPoint: "top" 699 680 basechar 0
AnchorPoint: "ogonek" 785 0 basechar 0
LayerCount: 2
Fore
SplineSet
731 -12 m 256
 905 -17 1070 92 1134 180 c 256
 1180 242 1105 293 1074 263 c 256
 978 171 855 121 760 122 c 256
 691 123 636 151 617 210 c 257
 858 262 987 346 987 502 c 256
 987 611 902 676 794 676 c 256
 738 676 687 658 641 628 c 257
 640 631 644 686 555 686 c 256
 228 686 48 495 34 217 c 256
 28 101 99 1 220 -11 c 256
 326 -21 430 29 483 128 c 257
 531 34 630 -9 731 -12 c 256
274 133 m 256
 217 139 205 182 205 227 c 256
 205 334 303 482 457 529 c 256
 488 538 521 544 556 544 c 257
 508 502 465 404 454 297 c 256
 452 279 451 261 451 242 c 257
 422 203 357 125 274 133 c 256
606 301 m 257
 606 310 607 319 608 328 c 256
 621 435 710 542 803 542 c 256
 837 542 867 526 862 477 c 256
 854 400 690 330 606 301 c 257
EndSplineSet
EndChar

StartChar: ampersand
Encoding: 38 38 151
Width: 1066
VWidth: 0
Flags: HW
LayerCount: 2
Fore
SplineSet
959 -167 m 256
 1057 -167 1120 -118 1120 -92 c 256
 1120 -50 1003 -21 955 17 c 256
 925 41 884 77 822 137 c 257
 938 201 1037 278 1037 394 c 256
 1037 458 888 491 888 445 c 256
 888 346 838 299 741 256 c 257
 677 347 587 489 531 605 c 257
 645 674 780 778 780 948 c 256
 780 1078 679 1156 547 1156 c 256
 385 1156 247 1031 247 869 c 256
 247 766 292 670 330 600 c 257
 207 534 45 422 45 242 c 256
 45 68 211 0 391 0 c 256
 511 0 605 24 671 55 c 257
 671 47 718 -17 826 -125 c 256
 863 -162 916 -167 959 -167 c 256
396 141 m 256
 303 141 225 177 225 267 c 256
 225 381 308 462 374 514 c 257
 441 383 502 283 587 176 c 257
 537 158 472 141 396 141 c 256
498 695 m 257
 462 756 441 823 441 879 c 256
 441 953 476 1008 556 1008 c 256
 615 1008 650 989 650 932 c 256
 650 820 561 752 498 695 c 257
EndSplineSet
EndChar

StartChar: asciicircum
Encoding: 94 94 156
Width: 762
VWidth: 0
Flags: HW
LayerCount: 2
Fore
SplineSet
138 353 m 256
 147 353 201 382 223 422 c 257
 405 787 l 257
 549 449 l 258
 566 411 601 356 653 356 c 256
 703 356 732 418 709 476 c 256
 661 601 606 721 550 832 c 256
 520 891 481 941 397 941 c 256
 313 941 277 859 241 792 c 256
 205 726 166 651 130 582 c 256
 107 537 65 492 65 435 c 256
 65 399 130 353 138 353 c 256
EndSplineSet
EndChar

StartChar: asciitilde
Encoding: 126 126 157
Width: 604
VWidth: 0
Flags: HW
LayerCount: 2
Fore
SplineSet
510 906 m 256
 593 906 682 1010 682 1090 c 256
 682 1122 656 1141 624 1141 c 256
 555 1141 531 1065 497 1027 c 257
 426 1098 l 258
 385 1139 349 1199 274 1199 c 256
 191 1199 102 1096 102 1016 c 256
 102 984 128 965 160 965 c 256
 226 965 256 1041 287 1079 c 257
 358 1008 l 258
 399 967 435 906 510 906 c 256
EndSplineSet
EndChar

StartChar: asterisk
Encoding: 42 42 158
Width: 716
VWidth: 0
Flags: HW
LayerCount: 2
Fore
SplineSet
297 605 m 256
 340 605 384 628 384 670 c 256
 384 736 385 808 387 874 c 257
 433 826 487 778 536 732 c 256
 592 676 696 812 628 846 c 256
 571 874 507 902 449 928 c 257
 516 937 695 944 695 1016 c 256
 695 1072 620 1116 584 1096 c 256
 528 1064 467 1030 410 1000 c 257
 435 1061 460 1132 482 1196 c 256
 496 1238 465 1277 421 1277 c 256
 378 1277 335 1255 335 1212 c 256
 335 1145 331 1072 331 1006 c 257
 283 1052 230 1102 182 1148 c 256
 130 1200 -12 1086 90 1034 c 256
 146 1005 209 978 267 952 c 257
 201 941 22 938 22 864 c 256
 22 810 92 757 134 784 c 257
 191 814 252 846 307 878 c 257
 282 817 232 735 232 660 c 256
 232 623 261 605 297 605 c 256
EndSplineSet
EndChar

StartChar: at
Encoding: 64 64 159
Width: 1568
VWidth: 0
Flags: HW
LayerCount: 2
Fore
SplineSet
681 -288 m 256
 885 -288 1104 -236 1259 -146 c 256
 1335 -102 1282 16 1202 -31 c 256
 1045 -122 869 -158 703 -158 c 256
 339 -158 223 34 223 247 c 256
 223 623 525 988 946 988 c 256
 1221 988 1362 850 1362 588 c 256
 1362 439 1256 145 1102 165 c 256
 1073 169 1055 195 1072 262 c 258
 1185 715 l 258
 1206 796 1184 831 1116 830 c 258
 1075 829 l 257
 1074 851 1060 864 1042 864 c 256
 759 864 421 609 421 258 c 256
 421 112 523 22 662 18 c 256
 796 14 890 83 963 208 c 257
 959 119 1000 73 1060 60 c 256
 1271 10 1489 259 1489 603 c 256
 1489 930 1288 1112 946 1112 c 256
 512 1112 76 738 76 251 c 256
 76 -30 244 -288 681 -288 c 256
704 142 m 256
 586 129 559 201 559 265 c 256
 559 549 803 760 1046 729 c 257
 951 400 l 258
 921 298 839 157 704 142 c 256
EndSplineSet
EndChar

StartChar: b
Encoding: 98 98 161
Width: 784
VWidth: 0
Flags: HW
PickledData: "(dp1
S'com.typemytype.robofont.layerData'
p2
(dp3
s."
AnchorPoint: "top" 911 714 basechar 0
LayerCount: 2
Fore
SplineSet
376 -11 m 256
 596 -11 718 194 718 472 c 256
 718 582 651 659 582 662 c 256
 496 666 415 606 415 606 c 257
 551 712 714 995 729 1162 c 256
 737 1250 709 1344 601 1344 c 256
 303 1344 93 734 78 286 c 256
 72 110 183 -11 376 -11 c 256
650 254 m 256
 754 254 874 299 934 354 c 256
 954 373 958 384 958 410 c 256
 958 441 942 462 914 462 c 256
 886 462 799 365 688 365 c 256
 603 365 624 454 580 454 c 256
 528 454 482 403 482 363 c 256
 482 277 548 254 650 254 c 256
394 123 m 256
 290 117 260 203 260 288 c 256
 260 411 350 542 470 542 c 256
 583 542 559 473 559 390 c 256
 559 270 491 129 394 123 c 256
253 540 m 257
 276 713 414 1176 545 1176 c 256
 570 1176 582 1158 578 1112 c 256
 561 929 375 701 253 540 c 257
EndSplineSet
EndChar

StartChar: backslash
Encoding: 92 92 162
Width: 873
VWidth: 0
Flags: HW
LayerCount: 2
Fore
SplineSet
737 -27 m 256
 780 -27 811 -6 811 38 c 256
 811 75 798 105 784 138 c 256
 639 459 487 797 342 1119 c 256
 308 1196 286 1305 187 1305 c 256
 137 1305 108 1270 108 1220 c 256
 108 1188 118 1161 130 1135 c 256
 290 777 428 399 607 45 c 256
 627 4 676 -27 737 -27 c 256
EndSplineSet
EndChar

StartChar: bar
Encoding: 124 124 163
Width: 873
VWidth: 0
Flags: HW
LayerCount: 2
Fore
SplineSet
361 -57 m 258
 338 -155 470 -205 506 -50 c 258
 828 1321 l 258
 855 1437 716 1464 687 1341 c 258
 361 -57 l 258
EndSplineSet
EndChar

StartChar: braceleft
Encoding: 123 123 165
Width: 807
VWidth: 0
Flags: HW
LayerCount: 2
Fore
SplineSet
692 -185 m 256
 744 -179 740 -68 676 -72 c 256
 470 -84 469 -39 469 83 c 256
 469 187 500 301 500 410 c 256
 500 530 395 590 284 603 c 257
 281 564 l 257
 411 564 530 614 538 761 c 256
 557 1107 576 1197 673 1210 c 257
 741 1218 808 1193 848 1180 c 256
 914 1157 932 1251 892 1275 c 256
 839 1307 745 1337 650 1329 c 256
 459 1314 411 1158 391 805 c 256
 385 699 351 652 215 662 c 256
 169 666 141 645 136 595 c 256
 132 553 151 518 187 514 c 257
 331 501 348 469 348 393 c 256
 348 276 318 172 318 69 c 256
 318 -123 412 -216 692 -185 c 256
EndSplineSet
EndChar

StartChar: braceright
Encoding: 125 125 166
Width: 873
VWidth: 0
Flags: HW
LayerCount: 2
Fore
SplineSet
361 -225 m 257
 553 -210 600 -55 620 298 c 257
 627 404 660 452 797 442 c 256
 843 438 871 457 875 508 c 256
 879 549 861 585 825 589 c 256
 681 603 663 634 663 710 c 256
 663 828 693 931 693 1033 c 256
 693 1226 598 1319 319 1287 c 256
 266 1281 272 1171 335 1175 c 256
 512 1186 534 1140 534 1018 c 256
 534 915 503 802 503 692 c 256
 503 572 617 512 728 500 c 257
 729 538 l 257
 600 538 473 488 465 342 c 256
 447 -4 428 -95 338 -108 c 257
 271 -115 204 -91 164 -77 c 256
 98 -55 78 -149 119 -173 c 256
 172 -205 266 -233 361 -225 c 257
EndSplineSet
EndChar

StartChar: bracketleft
Encoding: 91 91 167
Width: 648
VWidth: 0
Flags: HW
LayerCount: 2
Fore
SplineSet
314 -134 m 258
 542 -134 l 258
 588 -134 630 -100 630 -56 c 256
 630 -18 594 4 556 4 c 258
 374 4 l 257
 399 162 425 347 449 511 c 256
 473 670 503 898 524 1028 c 257
 732 1028 l 258
 773 1028 808 1058 808 1099 c 256
 808 1140 782 1167 739 1167 c 258
 496 1167 l 258
 422 1167 387 1150 370 1046 c 256
 326 773 282 446 245 180 c 258
 215 -37 l 258
 205 -111 231 -134 314 -134 c 258
EndSplineSet
EndChar

StartChar: bracketright
Encoding: 93 93 168
Width: 648
VWidth: 0
Flags: HW
LayerCount: 2
Fore
SplineSet
86 -134 m 258
 330 -134 l 258
 404 -134 439 -118 456 -14 c 256
 500 259 543 587 580 853 c 258
 610 1070 l 258
 620 1144 595 1167 512 1167 c 258
 283 1167 l 258
 237 1167 195 1132 195 1088 c 256
 195 1050 231 1029 269 1029 c 258
 451 1029 l 257
 426 871 400 686 376 522 c 256
 352 363 323 135 302 5 c 257
 94 5 l 258
 53 5 18 -25 18 -66 c 256
 18 -107 43 -134 86 -134 c 258
EndSplineSet
EndChar

StartChar: breve
Encoding: 728 728 169
Width: 420
VWidth: 0
Flags: HW
AnchorPoint: "top" 214 707 mark 0
LayerCount: 2
Fore
SplineSet
359 1110 m 256
 353 973 134 971 139 1095 c 256
 141 1154 41 1153 37 1096 c 256
 32 994 92 914 233 909 c 256
 353 905 447 975 454 1105 c 256
 456 1146 360 1139 359 1110 c 256
EndSplineSet
EndChar

StartChar: brokenbar
Encoding: 166 166 170
Width: 717
VWidth: 0
Flags: HW
LayerCount: 2
Fore
SplineSet
290 -112 m 256
 345 -112 387 -98 396 -45 c 256
 431 165 458 322 458 410 c 256
 458 470 431 524 373 524 c 256
 316 524 287 477 280 426 c 256
 258 278 216 153 216 1 c 256
 216 -53 238 -112 290 -112 c 256
430 660 m 256
 486 660 508 710 514 762 c 256
 529 887 566 1030 566 1168 c 256
 566 1230 544 1298 484 1298 c 256
 439 1298 412 1254 402 1210 c 256
 367 1055 337 796 337 777 c 256
 337 711 374 660 430 660 c 256
EndSplineSet
EndChar

StartChar: bullet
Encoding: 8226 8226 171
Width: 784
VWidth: 0
Flags: HW
LayerCount: 2
Fore
SplineSet
358 176 m 256
 511 176 605 312 605 470 c 256
 605 575 551 627 448 627 c 256
 302 627 179 529 179 381 c 256
 179 258 239 176 358 176 c 256
EndSplineSet
EndChar

StartChar: c
Encoding: 99 99 172
Width: 562
VWidth: 0
Flags: HW
PickledData: "(dp1
S'com.typemytype.robofont.layerData'
p2
(dp3
s."
AnchorPoint: "top" 417 617 basechar 0
AnchorPoint: "bot" 279 0 basechar 0
LayerCount: 2
Fore
SplineSet
331 -12 m 256
 519 -12 657 113 724 215 c 256
 754 261 704 333 665 290 c 256
 581 198 476 107 353 107 c 256
 259 107 193 171 197 279 c 256
 203 471 311 544 382 544 c 256
 418 544 446 524 445 495 c 256
 442 437 417 432 417 404 c 256
 417 375 439 347 469 347 c 256
 513 347 582 429 582 514 c 256
 582 598 510 676 391 676 c 256
 174 676 38 442 45 258 c 256
 53 47 223 -12 331 -12 c 256
EndSplineSet
EndChar

StartChar: caron
Encoding: 711 711 174
Width: 604
VWidth: 0
Flags: HW
AnchorPoint: "top" 294 680 mark 0
LayerCount: 2
Fore
SplineSet
297 928 m 256
 395 928 418 1010 452 1078 c 258
 566 1308 l 258
 585 1350 560 1399 524 1399 c 256
 453 1399 433 1363 411 1309 c 256
 374 1221 342 1135 308 1043 c 257
 288 1123 285 1401 177 1401 c 256
 119 1401 83 1342 101 1298 c 257
 123 1227 142 1172 162 1103 c 256
 185 1024 200 928 297 928 c 256
EndSplineSet
EndChar

StartChar: cedilla
Encoding: 184 184 179
Width: 828
VWidth: 0
Flags: HW
AnchorPoint: "bot" 473 157 mark 0
LayerCount: 2
Fore
SplineSet
375 -253 m 258
 466 13 l 258
 476 41 448 64 422 28 c 258
 246 -214 l 258
 180 -305 334 -373 375 -253 c 258
EndSplineSet
EndChar

StartChar: cent
Encoding: 162 162 180
Width: 627
VWidth: 0
Flags: HW
LayerCount: 2
Fore
SplineSet
328 -139 m 256
 359 -139 379 -122 386 -91 c 257
 398 4 l 257
 478 23 545 69 598 113 c 256
 610 123 619 134 619 153 c 256
 619 189 587 243 550 215 c 256
 514 190 458 155 410 141 c 257
 422 275 429 409 437 536 c 257
 517 519 452 381 540 381 c 256
 597 381 620 452 620 510 c 256
 620 606 534 655 447 668 c 257
 449 686 452 719 452 740 c 256
 452 760 443 794 423 794 c 256
 383 794 362 754 360 716 c 258
 356 669 l 257
 178 649 45 488 45 289 c 256
 45 125 137 2 300 0 c 257
 298 -30 294 -65 295 -92 c 256
 296 -119 304 -139 328 -139 c 256
311 136 m 257
 248 149 224 214 224 290 c 256
 224 400 263 492 344 525 c 257
 333 398 321 263 311 136 c 257
EndSplineSet
EndChar

StartChar: circumflex
Encoding: 710 710 181
Width: 604
VWidth: 0
Flags: HW
AnchorPoint: "top" 294 680 mark 0
LayerCount: 2
Fore
SplineSet
415 865 m 258
 428 804 554 797 532 908 c 258
 490 1114 l 258
 468 1222 458 1289 374 1289 c 256
 266 1289 262 1236 204 1140 c 258
 85 944 l 258
 75 928 71 914 72 902 c 256
 74 848 164 837 192 888 c 258
 351 1175 l 257
 415 865 l 258
EndSplineSet
EndChar

StartChar: colon
Encoding: 58 58 182
Width: 492
VWidth: 0
Flags: HW
LayerCount: 2
Fore
SplineSet
339 0 m 256
 422 0 470 54 470 134 c 256
 470 208 428 247 352 247 c 256
 270 247 224 193 224 113 c 256
 224 38 265 0 339 0 c 256
381 470 m 256
 464 470 512 524 512 604 c 256
 512 678 470 718 394 718 c 256
 312 718 266 664 266 584 c 256
 266 509 307 470 381 470 c 256
EndSplineSet
EndChar

StartChar: comma
Encoding: 44 44 183
Width: 594
VWidth: 0
Flags: HW
LayerCount: 2
Fore
SplineSet
178 -156 m 256
 277 -128 421 -20 421 128 c 256
 421 182 398 233 332 225 c 256
 277 218 256 191 251 153 c 256
 237 37 193 -15 136 -111 c 256
 116 -144 146 -165 178 -156 c 256
EndSplineSet
EndChar

StartChar: copyright
Encoding: 169 169 184
Width: 1254
VWidth: 0
Flags: HW
LayerCount: 2
Fore
SplineSet
581 226 m 256
 674 226 747 268 802 308 c 256
 813 316 820 328 820 346 c 256
 820 378 799 421 766 407 c 257
 728 383 672 347 613 347 c 256
 542 347 517 405 517 474 c 256
 517 569 546 690 641 690 c 256
 669 690 653 633 653 601 c 256
 653 567 663 549 699 549 c 256
 758 549 788 611 788 671 c 256
 788 759 718 811 629 811 c 256
 440 811 363 630 363 462 c 256
 363 337 423 226 581 226 c 256
587 134 m 256
 369 134 204 239 204 452 c 256
 204 714 400 895 667 895 c 256
 877 895 1009 788 1009 583 c 256
 1009 330 844 134 587 134 c 256
584 22 m 256
 896 22 1138 240 1138 587 c 256
 1138 857 965 1008 692 1008 c 256
 348 1008 75 802 75 460 c 256
 75 176 292 22 584 22 c 256
EndSplineSet
EndChar

StartChar: currency
Encoding: 164 164 185
Width: 1030
VWidth: 0
Flags: HW
LayerCount: 2
Fore
SplineSet
782 243 m 256
 816 243 852 282 852 316 c 257
 851 334 838 355 811 379 c 258
 742 441 l 257
 814 521 869 638 869 787 c 256
 869 836 861 880 843 920 c 257
 923 976 l 258
 950 994 978 1012 978 1046 c 256
 978 1078 952 1112 920 1112 c 256
 863 1112 803 1051 762 1023 c 257
 717 1057 657 1078 581 1078 c 256
 503 1078 439 1060 387 1031 c 257
 303 1105 l 258
 280 1125 259 1136 241 1136 c 256
 207 1136 170 1099 170 1065 c 256
 170 1036 191 1018 211 1000 c 258
 278 940 l 257
 216 865 173 758 174 631 c 256
 174 574 184 523 206 477 c 257
 99 403 l 258
 72 384 45 366 45 332 c 256
 45 300 70 267 102 267 c 256
 111 267 123 270 137 276 c 256
 189 300 241 340 287 374 c 257
 332 339 390 316 466 316 c 256
 531 316 584 332 629 354 c 257
 664 322 722 243 782 243 c 256
487 452 m 256
 383 452 330 525 330 631 c 256
 330 802 408 944 577 944 c 256
 665 944 711 876 711 788 c 256
 711 630 644 452 487 452 c 256
EndSplineSet
EndChar

StartChar: d
Encoding: 100 100 186
Width: 789
VWidth: 0
Flags: HW
PickledData: "(dp1
S'com.typemytype.robofont.layerData'
p2
(dp3
s."
AnchorPoint: "top" 357 931 basechar 0
AnchorPoint: "caron.alt" 1067 1136 basechar 0
AnchorPoint: "mid" 570 887 basechar 0
LayerCount: 2
Fore
SplineSet
251 -11 m 256
 357 -11 429 40 467 135 c 257
 508 43 583 -6 668 -6 c 256
 819 -6 920 91 986 174 c 256
 992 182 1003 203 1002 223 c 256
 998 260 966 283 937 282 c 256
 924 282 914 281 906 272 c 256
 870 228 777 122 685 122 c 256
 626 122 585 182 589 318 c 257
 748 552 1025 891 998 1209 c 256
 991 1280 931 1345 847 1345 c 256
 641 1345 523 1064 466 666 c 257
 243 737 26 454 48 198 c 256
 59 71 145 -11 251 -11 c 256
284 133 m 256
 255 133 213 145 206 228 c 256
 194 369 300 541 458 541 c 257
 435 386 l 258
 406 183 355 133 284 133 c 256
594 517 m 257
 631 798 684 1176 817 1176 c 256
 835 1176 849 1167 853 1133 c 256
 870 941 725 726 594 517 c 257
EndSplineSet
EndChar

StartChar: dagger
Encoding: 8224 8224 187
Width: 806
VWidth: 0
Flags: HW
LayerCount: 2
Fore
SplineSet
363 -188 m 256
 461 -188 465 -112 557 256 c 257
 626 568 l 257
 808 568 l 258
 853 568 881 580 881 626 c 256
 881 662 857 681 821 681 c 258
 650 681 l 257
 693 861 715 925 715 1002 c 256
 715 1035 704 1059 671 1059 c 256
 568 1059 573 985 493 681 c 257
 328 681 l 258
 287 681 253 661 253 620 c 256
 253 579 278 568 321 568 c 258
 467 568 l 257
 332 0 313 -49 313 -108 c 256
 313 -148 323 -188 363 -188 c 256
EndSplineSet
EndChar

StartChar: daggerdbl
Encoding: 8225 8225 188
Width: 806
VWidth: 0
Flags: HW
LayerCount: 2
Fore
SplineSet
363 -188 m 256
 461 -188 465 -112 557 256 c 257
 741 256 l 258
 786 256 813 267 813 313 c 256
 813 349 790 368 754 368 c 258
 582 368 l 257
 626 568 l 257
 808 568 l 258
 853 568 881 580 881 626 c 256
 881 662 857 681 821 681 c 258
 650 681 l 257
 693 861 715 925 715 1002 c 256
 715 1035 704 1059 671 1059 c 256
 568 1059 573 985 493 681 c 257
 328 681 l 258
 287 681 253 661 253 620 c 256
 253 579 278 568 321 568 c 258
 467 568 l 257
 419 368 l 257
 260 368 l 258
 219 368 186 348 186 307 c 256
 186 266 210 256 253 256 c 258
 392 256 l 257
 332 0 313 -49 313 -108 c 256
 313 -148 323 -188 363 -188 c 256
EndSplineSet
EndChar

StartChar: degree
Encoding: 176 176 192
Width: 515
VWidth: 0
Flags: HW
LayerCount: 2
Fore
SplineSet
227 842 m 256
 179 842 150 874 150 921 c 256
 150 996 212 1042 289 1042 c 256
 332 1042 356 1013 356 972 c 256
 356 900 301 842 227 842 c 256
227 738 m 256
 368 738 470 838 470 982 c 256
 470 1079 403 1142 308 1142 c 256
 174 1142 45 1058 45 922 c 256
 45 809 118 738 227 738 c 256
EndSplineSet
EndChar

StartChar: dieresis
Encoding: 168 168 193
Width: 717
VWidth: 0
Flags: HW
AnchorPoint: "top" 294 680 mark 0
LayerCount: 2
Fore
SplineSet
89 825 m 256
 127 825 184 853 184 919 c 256
 184 965 167 995 101 995 c 256
 64 995 8 967 8 901 c 256
 8 855 25 825 89 825 c 256
437 825 m 256
 475 825 532 853 532 919 c 256
 532 965 515 995 449 995 c 256
 412 995 356 967 356 901 c 256
 356 855 373 825 437 825 c 256
EndSplineSet
EndChar

StartChar: divide
Encoding: 247 247 194
Width: 899
VWidth: 0
Flags: HW
LayerCount: 2
Fore
SplineSet
335 382 m 258
 756 382 l 258
 806 382 831 411 831 462 c 256
 831 497 803 516 764 516 c 258
 346 516 l 258
 296 516 248 492 248 444 c 256
 248 401 289 382 335 382 c 258
494 54 m 256
 565 54 606 99 606 168 c 256
 606 232 570 265 505 265 c 256
 436 265 396 219 396 150 c 256
 396 86 431 54 494 54 c 256
584 637 m 256
 655 637 697 682 697 751 c 256
 697 814 660 848 596 848 c 256
 526 848 486 803 486 734 c 256
 486 670 521 637 584 637 c 256
EndSplineSet
EndChar

StartChar: dollar
Encoding: 36 36 195
Width: 1214
VWidth: 0
Flags: HW
LayerCount: 2
Fore
SplineSet
579 -157 m 256
 627 -157 661 -150 673 -111 c 257
 694 3 l 257
 904 22 1076 127 1076 355 c 256
 1076 528 927 611 814 676 c 257
 881 1066 l 257
 944 1054 1012 1024 1020 962 c 256
 1034 844 1202 841 1188 962 c 256
 1170 1112 1035 1184 905 1210 c 257
 916 1274 l 258
 923 1318 925 1389 875 1389 c 256
 820 1389 781 1356 774 1310 c 258
 759 1220 l 257
 555 1212 347 1111 347 906 c 256
 347 734 529 659 646 597 c 257
 565 147 l 257
 456 155 347 189 347 294 c 256
 347 370 380 419 453 419 c 256
 489 419 513 442 513 476 c 256
 513 520 478 545 432 545 c 256
 276 545 180 445 180 292 c 256
 180 93 353 18 539 3 c 257
 527 -60 514 -157 579 -157 c 256
676 757 m 257
 619 793 537 839 537 927 c 256
 537 1025 638 1062 732 1072 c 257
 714 970 695 862 676 757 c 257
723 157 m 257
 787 519 l 257
 839 484 908 439 908 355 c 256
 908 239 818 181 723 157 c 257
EndSplineSet
EndChar

StartChar: dotaccent
Encoding: 729 729 196
Width: 492
VWidth: 0
Flags: HW
AnchorPoint: "top" 224 680 mark 0
LayerCount: 2
Fore
SplineSet
238 914 m 256
 293 914 340 961 340 1017 c 256
 340 1064 298 1104 248 1104 c 256
 194 1104 148 1057 148 1001 c 256
 148 953 190 914 238 914 c 256
EndSplineSet
EndChar

StartChar: dotlessi
Encoding: 305 305 197
Width: 420
VWidth: 0
Flags: HW
PickledData: "(dp1
S'com.typemytype.robofont.layerData'
p2
(dp3
s."
AnchorPoint: "top" 314 707 basechar 0
AnchorPoint: "ogonek" 267 0 basechar 0
LayerCount: 2
Fore
SplineSet
249 -4 m 256
 357 -19 488 40 598 173 c 256
 612 191 620 200 621 215 c 256
 623 258 590 283 555 282 c 256
 540 282 529 275 519 262 c 256
 361 82 239 86 239 220 c 256
 239 319 311 528 363 625 c 256
 383 663 335 693 302 695 c 256
 256 698 227 687 198 632 c 256
 141 526 80 320 80 197 c 256
 80 86 148 10 249 -4 c 256
EndSplineSet
EndChar

StartChar: dotlessj
Encoding: 567 567 198
Width: 646
VWidth: 0
Flags: W
AnchorPoint: "top" 474 956 basechar 0
LayerCount: 2
Fore
SplineSet
235 -608 m 256
 486 -608 584 -281 606 -32 c 256
 620 128 589 267 554 384 c 257
 733 386 969.999 426 969.999 618 c 256
 969.999 658.92 953.333 692.667 912 672 c 257
 734 593 618 579 396 544 c 257
 466 704 l 258
 489 756 525 832 530 895 c 256
 533 932 511 960 470 960 c 256
 337 960 298 922 255 820 c 256
 158 592 57 278 33 0 c 256
 9.99999 -258 -8 -608 235 -608 c 256
287 -384 m 256
 234 -384 234 -258 240 -192 c 256
 260 39 306 246 358 447 c 257
 388 299 429 147 414 -32 c 256
 401 -187 379 -384 287 -384 c 256
EndSplineSet
EndChar

StartChar: e
Encoding: 101 101 199
Width: 589
VWidth: 0
Flags: HW
PickledData: "(dp1
S'com.typemytype.robofont.layerData'
p2
(dp3
s."
AnchorPoint: "top" 432 624 basechar 0
AnchorPoint: "ogonek" 377 0 basechar 0
LayerCount: 2
Fore
SplineSet
323 -12 m 256
 497 -17 662 92 726 180 c 256
 772 242 697 293 666 263 c 256
 501 104 255 69 209 210 c 257
 450 262 579 346 579 502 c 256
 579 611 494 676 386 676 c 256
 189 676 45 454 45 264 c 256
 45 74 183 -8 323 -12 c 256
198 301 m 257
 198 417 294 542 395 542 c 256
 429 542 459 526 454 477 c 256
 446 400 282 330 198 301 c 257
EndSplineSet
EndChar

StartChar: eight
Encoding: 56 56 207
Width: 855
VWidth: 0
Flags: HW
LayerCount: 2
Fore
SplineSet
448 -27 m 256
 620 -27 754 67 754 225 c 256
 754 366 657 451 573 514 c 257
 700 574 809 653 809 834 c 256
 809 967 686 1021 566 1030 c 256
 380 1044 232 933 232 758 c 256
 232 659 311 587 379 542 c 257
 265 474 157 384 157 206 c 256
 157 45 274 -27 448 -27 c 256
415 113 m 256
 344 121 310 173 310 223 c 256
 310 334 401 409 470 445 c 257
 501 407 582 321 582 252 c 256
 582 172 523 101 415 113 c 256
493 610 m 257
 459 643 387 711 387 771 c 256
 387 853 447 897 539 897 c 256
 588 897 643 863 643 794 c 256
 643 721 550 642 493 610 c 257
EndSplineSet
EndChar

StartChar: ellipsis
Encoding: 8230 8230 208
Width: 1096
VWidth: 0
Flags: HW
LayerCount: 2
Fore
SplineSet
339 0 m 256
 422 0 470 54 470 134 c 256
 470 208 428 247 352 247 c 256
 270 247 224 193 224 113 c 256
 224 38 265 0 339 0 c 256
630 0 m 256
 713 0 762 54 762 134 c 256
 762 208 719 247 643 247 c 256
 561 247 515 193 515 113 c 256
 515 38 556 0 630 0 c 256
921 0 m 256
 1004 0 1053 54 1053 134 c 256
 1053 208 1010 247 934 247 c 256
 852 247 806 193 806 113 c 256
 806 38 847 0 921 0 c 256
EndSplineSet
EndChar

StartChar: emdash
Encoding: 8212 8212 210
Width: 784
VWidth: 0
Flags: HW
LayerCount: 2
Fore
SplineSet
110 269 m 258
 652 269 l 258
 712 269 739 304 739 363 c 256
 739 411 704 426 654 426 c 258
 130 426 l 258
 71 426 44 404 44 344 c 256
 44 301 68 269 110 269 c 258
EndSplineSet
EndChar

StartChar: emptyset
Encoding: 8709 8709 211
Width: 858
VWidth: 0
Flags: HW
LayerCount: 2
Fore
SplineSet
388 -208 m 258
 496 105 l 257
 869 105 995 771 744 874 c 257
 855 1212 l 258
 878 1281 800 1310 774 1231 c 258
 660 887 l 257
 451 877 270 616 270 377 c 256
 270 257 318 160 408 122 c 257
 307 -187 l 258
 292 -235 371 -260 388 -208 c 258
456 267 m 257
 421 296 410 348 410 401 c 256
 410 550 502 709 612 741 c 257
 456 267 l 257
538 245 m 257
 697 731 l 257
 799 646 713 256 538 245 c 257
EndSplineSet
EndChar

StartChar: endash
Encoding: 8211 8211 212
Width: 693
VWidth: 0
Flags: HW
LayerCount: 2
Fore
SplineSet
111 269 m 258
 562 269 l 258
 622 269 650 304 650 363 c 256
 650 411 615 426 565 426 c 258
 131 426 l 258
 72 426 46 404 46 344 c 256
 46 301 69 269 111 269 c 258
EndSplineSet
EndChar

StartChar: eng
Encoding: 331 331 213
Width: 690
VWidth: 0
Flags: HW
LayerCount: 2
Fore
SplineSet
554 115 m 257
 600 242 l 258
 621 304 677 506 683 608 c 256
 684 638 659 672 604 672 c 256
 517 672 391 539 228 279 c 257
 247 366 289 533 312 602 c 256
 324 638 298 675 256 675 c 256
 206 675 181 643 166 603 c 256
 118 472 82 292 81 151 c 256
 80 75 75 0 146 0 c 256
 190 0 208 34 248 103 c 256
 354 287 445 412 532 470 c 257
 512 396 481 291 465 242 c 258
 398 54 l 257
 300 3 216 -55 149 -114 c 256
 82 -173 31 -232 -0 -286 c 256
 -63 -394 -48 -478 65 -485 c 256
 137 -490 220 -454 302 -372 c 256
 384 -290 464 -163 532 13 c 257
 648 83 732 102 819 147 c 256
 900 188 882 253 826 239 c 256
 774 226 649 170 554 115 c 257
372 -69 m 257
 324 -173 196 -375 105 -361 c 256
 95 -360 90 -353 89 -344 c 256
 86 -298 187 -172 372 -69 c 257
EndSplineSet
EndChar

StartChar: equal
Encoding: 61 61 215
Width: 1194
VWidth: 0
Flags: HW
LayerCount: 2
Fore
SplineSet
363 201 m 258
 918 201 l 258
 1057 201 1135 224 1135 315 c 256
 1135 348 1111 358 1077 358 c 258
 846 358 l 258
 765 358 602 350 414 358 c 256
 336 362 244 353 244 290 c 256
 244 224 287 201 363 201 c 258
363 481 m 258
 987 491 l 258
 1082 492 1159 514 1159 584 c 256
 1159 638 1138 651 1114 657 c 256
 992 685 865 642 621 648 c 258
 438 652 l 258
 360 654 269 643 269 566 c 256
 269 514 312 480 363 481 c 258
EndSplineSet
EndChar

StartChar: estimated
Encoding: 8494 8494 216
Width: 802
VWidth: 0
Flags: HW
LayerCount: 2
Fore
SplineSet
450 225 m 256
 625 225 736 317 794 396 c 256
 800 405 803 412 803 421 c 256
 803 443 784 461 771 461 c 256
 768 461 765 460 763 458 c 256
 658 330 545 272 451 272 c 256
 337 272 262 339 262 477 c 257
 551 477 680 573 680 713 c 256
 680 802 607 892 441 892 c 256
 289 892 121 791 129 508 c 256
 135 286 344 225 450 225 c 256
262 507 m 257
 263 758 347 868 444 868 c 256
 522 868 571 805 571 731 c 256
 571 632 484 515 262 507 c 257
EndSplineSet
EndChar

StartChar: eth
Encoding: 240 240 217
Width: 762
VWidth: 0
Flags: HW
LayerCount: 2
Fore
SplineSet
357 0 m 256
 635 0 788 319 788 671 c 256
 788 765 771 849 743 920 c 257
 827 956 l 258
 860 970 887 990 887 1026 c 256
 887 1064 867 1097 831 1097 c 256
 817 1097 805 1092 795 1088 c 258
 680 1038 l 257
 610 1133 506 1210 344 1210 c 256
 287 1210 242 1188 242 1133 c 256
 242 1097 263 1054 298 1054 c 256
 398 1054 470 1023 520 969 c 257
 404 919 l 258
 379 908 358 894 358 865 c 256
 358 828 388 788 426 788 c 256
 436 788 447 790 457 795 c 256
 500 814 543 833 586 851 c 257
 602 801 610 744 610 673 c 257
 564 687 514 694 452 694 c 256
 274 694 45 528 45 291 c 256
 45 107 176 0 357 0 c 256
379 134 m 256
 271 134 203 186 203 291 c 256
 203 425 329 537 463 537 c 256
 518 537 558 527 593 510 c 257
 571 391 513 134 379 134 c 256
EndSplineSet
EndChar

StartChar: exclam
Encoding: 33 33 218
Width: 653
VWidth: 0
Flags: HW
LayerCount: 2
Fore
SplineSet
397 386 m 258
 388 353 448 309 480 393 c 258
 745 1078 l 258
 791 1196 846 1312 713 1327 c 256
 649 1334 606 1291 592 1231 c 258
 397 386 l 258
370 -1 m 256
 451 -1 496 57 496 134 c 256
 496 207 456 247 383 247 c 256
 301 247 255 193 255 113 c 256
 255 38 296 -1 370 -1 c 256
EndSplineSet
EndChar

StartChar: f
Encoding: 102 102 220
Width: 519
VWidth: 0
Flags: HW
PickledData: "(dp1
S'com.typemytype.robofont.layerData'
p2
(dp3
s."
AnchorPoint: "top" 612 1203 basechar 0
LayerCount: 2
Fore
SplineSet
202 -493 m 256
 381 -459 456 -257 456 -90 c 256
 456 38 412 214 373 299 c 257
 514 304 706 317 706 456 c 256
 706 483 697 505 681 505 c 256
 677 505 673 503 668 500 c 256
 571 446 522 411 405 411 c 256
 378 411 345 415 325 422 c 257
 463 583 701 870 701 1137 c 256
 701 1234 649 1299 561 1299 c 256
 172 1299 37 266 37 -125 c 256
 37 -292 56 -521 202 -493 c 256
225 -363 m 256
 191 -363 189 -223 189 -121 c 256
 189 18 204 226 211 366 c 257
 273 266 328 50 328 -128 c 256
 328 -213 326 -363 225 -363 c 256
244 480 m 257
 262 542 375 1142 535 1142 c 256
 564 1142 570 1108 570 1070 c 256
 570 870 294 539 244 480 c 257
EndSplineSet
EndChar

StartChar: five
Encoding: 53 53 223
Width: 855
VWidth: 0
Flags: HW
LayerCount: 2
Fore
SplineSet
431 -19 m 256
 609 -23 791 76 787 313 c 256
 783 564 571 634 365 601 c 257
 431 802 l 257
 660 806 832 710 846 884 c 256
 855 997 802 997 790 984 c 256
 692 869 607 975 405 975 c 256
 227 975 345 877 225 602 c 256
 191 525 222 474 281 483 c 256
 482 513 633 451 618 280 c 256
 608 162 513 110 417 114 c 256
 314 118 266 159 251 215 c 256
 243 246 255 267 255 291 c 256
 255 323 233 336 214 337 c 256
 171 338 121 312 115 231 c 256
 104 73 234 -15 431 -19 c 256
EndSplineSet
EndChar

StartChar: florin
Encoding: 402 402 225
Width: 919
VWidth: 0
Flags: HW
LayerCount: 2
Fore
SplineSet
367 -90 m 256
 683 -90 700 340 757 605 c 257
 965 605 l 258
 1004 605 1032 631 1032 672 c 256
 1032 715 1008 739 965 739 c 258
 778 739 l 257
 802 879 831 1129 979 1129 c 256
 1030 1129 1056 1079 1104 1079 c 256
 1150 1079 1181 1134 1181 1180 c 256
 1181 1256 1079 1286 1003 1286 c 256
 710 1286 649 997 613 739 c 257
 576 739 538 743 504 743 c 256
 447 743 405 732 405 672 c 256
 405 626 425 605 472 605 c 258
 592 605 l 257
 583 532 574 468 564 413 c 256
 542 288 517 67 377 67 c 256
 343 67 331 117 301 117 c 256
 255 117 224 62 224 16 c 256
 224 -55 298 -90 367 -90 c 256
EndSplineSet
EndChar

StartChar: four
Encoding: 52 52 227
Width: 855
VWidth: 0
Flags: HW
LayerCount: 2
Fore
SplineSet
499 -40 m 256
 539 -40 566 -32 584 44 c 258
 607 141 l 257
 736 144 l 258
 810 145 824 278 761 277 c 258
 636 276 l 257
 651 342 703 548 717 609 c 256
 725 646 691 657 655 657 c 256
 605 657 580 633 567 590 c 256
 553 538 495 322 486 279 c 257
 302 279 l 257
 368 489 455 753 504 920 c 256
 525 992 386 1015 360 941 c 256
 305 783 185 424 137 266 c 256
 107 165 132 139 189 139 c 258
 454 139 l 257
 434 45 l 258
 423 -8 435 -40 499 -40 c 256
EndSplineSet
EndChar

StartChar: fraction
Encoding: 8260 8260 229
Width: 506
VWidth: 0
Flags: HW
LayerCount: 2
Fore
SplineSet
142 -33 m 258
 662 1170 l 258
 697 1251 579 1330 528 1215 c 258
 8 40 l 258
 -37 -62 106 -118 142 -33 c 258
EndSplineSet
EndChar

StartChar: g
Encoding: 103 103 230
Width: 704
VWidth: 0
Flags: HW
PickledData: "(dp1
S'com.typemytype.robofont.layerData'
p2
(dp3
s."
AnchorPoint: "top" 570 680 basechar 0
LayerCount: 2
Fore
SplineSet
129 -650 m 256
 229 -650 308 -605 383 -517 c 256
 459 -427 508 -252 547 -76 c 257
 691 21 779 61 876 114 c 256
 967 164 901 256 837 239 c 256
 777 224 664 149 566 69 c 257
 679 556 l 258
 691 607 633 648 564 620 c 256
 563 620 570 667 492 669 c 256
 269 675 56 454 56 197 c 256
 56 86 129 0 245 0 c 256
 314 0 398 40 435 95 c 257
 414 -4 l 257
 308 -85 183 -166 96 -265 c 256
 41 -327 -41 -411 -41 -510 c 256
 -41 -609 26 -650 129 -650 c 256
291 134 m 256
 232 134 219 182 219 227 c 256
 219 356 351 541 524 541 c 257
 468 332 l 258
 450 266 409 134 291 134 c 256
118 -538 m 256
 96 -538 87 -515 87 -496 c 256
 87 -383 251 -262 406 -132 c 257
 380 -254 278 -538 118 -538 c 256
EndSplineSet
EndChar

StartChar: germandbls
Encoding: 223 223 237
Width: 896
VWidth: 0
Flags: HW
LayerCount: 2
Fore
SplineSet
134 -111 m 256
 188 -111 232 -82 232 -27 c 256
 232 18 231 61 231 111 c 256
 231 455 236 983 585 983 c 256
 672 983 748 948 748 862 c 256
 748 730 627 673 492 673 c 256
 431 673 420 652 420 591 c 256
 420 553 441 534 468 522 c 256
 581 472 726 506 726 342 c 256
 726 197 587 120 442 144 c 256
 350 159 326 156 321 122 c 256
 313 65 290 17 480 2 c 256
 691 -15 883 113 883 318 c 256
 883 492 755 592 577 592 c 257
 760 596 905 687 905 868 c 256
 905 1031 753 1119 584 1119 c 256
 526 1119 474 1110 428 1091 c 256
 86 952 45 426 45 -48 c 256
 45 -91 89 -111 134 -111 c 256
EndSplineSet
EndChar

StartChar: grave
Encoding: 96 96 238
Width: 426
VWidth: 0
Flags: HW
PickledData: "(dp1
S'com.typemytype.robofont.layerData'
p2
(dp3
s."
AnchorPoint: "top" 294 680 mark 0
LayerCount: 2
Fore
SplineSet
273 902 m 258
 96 1189 l 258
 36 1291 -124 1172 -31 1084 c 258
 214 851 l 258
 236 830 260 829 274 839 c 256
 288 849 292 872 273 902 c 258
EndSplineSet
EndChar

StartChar: greater
Encoding: 62 62 239
Width: 828
VWidth: 0
Flags: HW
LayerCount: 2
Fore
SplineSet
186 74 m 256
 270 74 347 119 413 147 c 256
 561 209 794 238 794 438 c 256
 794 554 665 566 585 604 c 256
 475 656 323 760 174 760 c 256
 118 760 97 700 97 645 c 256
 97 607 120 592 151 582 c 258
 657 429 l 257
 177 247 l 258
 141 233 114 182 114 130 c 256
 114 93 147 74 186 74 c 256
EndSplineSet
EndChar

StartChar: greaterequal
Encoding: 8805 8805 240
Width: 1160
VWidth: 0
Flags: HW
LayerCount: 2
Fore
SplineSet
413 -23 m 258
 832 -23 l 258
 908 -23 986 0 986 91 c 256
 986 124 962 134 928 134 c 258
 760 134 l 258
 679 134 554 135 464 134 c 256
 386 133 295 129 295 66 c 256
 295 0 337 -23 413 -23 c 258
EndSplineSet
Refer: 239 62 N 1 0 0 1 210 119 2
EndChar

StartChar: guillemotleft
Encoding: 171 171 241
Width: 1007
VWidth: 0
Flags: HW
LayerCount: 2
Fore
SplineSet
447 61 m 256
 501 30 570 62 570 111 c 256
 570 168 512 192 482 219 c 258
 294 381 l 257
 522 541 l 258
 553 563 592 586 592 627 c 256
 592 670 556 699 513 699 c 256
 453 699 413 649 372 619 c 256
 298 567 134 497 134 373 c 256
 134 327 159 297 188 270 c 256
 271 191 340 121 447 61 c 256
850 61 m 256
 904 30 973 62 973 111 c 256
 973 168 916 192 886 219 c 258
 697 381 l 257
 925 541 l 258
 956 563 995 586 995 627 c 256
 995 670 959 699 916 699 c 256
 856 699 817 649 776 619 c 256
 702 567 538 497 538 373 c 256
 538 327 562 297 591 270 c 256
 674 191 743 121 850 61 c 256
EndSplineSet
EndChar

StartChar: guillemotright
Encoding: 187 187 242
Width: 1007
VWidth: 0
Flags: HW
LayerCount: 2
Fore
SplineSet
234 51 m 256
 248 51 264 53 279 61 c 256
 362 108 428 161 490 223 c 256
 528 262 592 302 592 373 c 256
 592 458 514 512 458 545 c 256
 424 565 388 595 354 619 c 256
 316 647 270 699 213 699 c 256
 170 699 134 670 134 627 c 256
 134 586 173 563 204 541 c 258
 432 381 l 257
 244 219 l 258
 212 192 156 171 156 111 c 256
 156 75 196 51 234 51 c 256
638 51 m 256
 652 51 667 53 682 61 c 256
 765 108 831 161 893 223 c 256
 931 262 995 302 995 373 c 256
 995 458 918 512 862 545 c 256
 828 565 791 595 757 619 c 256
 719 647 673 699 616 699 c 256
 573 699 538 670 538 627 c 256
 538 586 576 563 607 541 c 258
 835 381 l 257
 647 219 l 258
 615 192 559 171 559 111 c 256
 559 75 600 51 638 51 c 256
EndSplineSet
EndChar

StartChar: guilsinglleft
Encoding: 8249 8249 243
Width: 762
VWidth: 0
Flags: HW
LayerCount: 2
Fore
SplineSet
561 51 m 256
 599 51 640 75 640 111 c 256
 640 165 591 204 552 219 c 257
 224 381 l 257
 592 541 l 258
 628 557 662 584 662 627 c 256
 662 670 626 699 583 699 c 256
 569 699 557 697 546 692 c 258
 197 545 l 258
 132 518 57 467 57 378 c 256
 57 328 85 291 118 270 c 256
 243 188 362 119 517 61 c 256
 533 55 547 51 561 51 c 256
EndSplineSet
EndChar

StartChar: guilsinglright
Encoding: 8250 8250 244
Width: 762
VWidth: 0
Flags: HW
LayerCount: 2
Fore
SplineSet
223 51 m 256
 237 51 251 55 267 61 c 256
 394 116 516 183 627 246 c 256
 682 278 727 316 727 399 c 256
 727 475 656 518 587 545 c 258
 238 692 l 258
 227 697 215 699 201 699 c 256
 158 699 122 670 122 627 c 256
 122 584 156 558 192 541 c 258
 560 381 l 257
 232 219 l 258
 194 201 144 166 144 111 c 256
 144 75 185 51 223 51 c 256
EndSplineSet
EndChar

StartChar: h
Encoding: 104 104 245
Width: 777
VWidth: 0
Flags: HW
AnchorPoint: "top" 955 1220 basechar 0
AnchorPoint: "mid" 284 976 basechar 0
LayerCount: 2
Fore
SplineSet
122 0 m 256
 191 -12 207 27 225 79 c 256
 275 220 413 381 503 448 c 256
 615 531 450 301 444 130 c 256
 440 24 509 -14 592 0 c 256
 722 22 833 86 909 137 c 256
 941 159 952 190 951 218 c 256
 950 257 925 290 897 290 c 256
 891 290 884 289 878 285 c 257
 858 268 684 136 624 136 c 256
 612 136 605 140 605 149 c 256
 601 243 700 424 747 565 c 256
 768 628 716 676 643 676 c 256
 581 676 372 565 223 301 c 257
 260 505 l 257
 637 843 740 1047 757 1208 c 257
 763 1312 703 1387 599 1387 c 256
 244 1387 87 630 67 233 c 256
 63 165 49 13 122 0 c 256
278 661 m 257
 307 824 427 1247 566 1218 c 256
 587 1214 595 1200 594 1169 c 256
 587 1047 419 810 278 661 c 257
EndSplineSet
EndChar

StartChar: hungarumlaut
Encoding: 733 733 248
Width: 716
VWidth: 0
Flags: HW
AnchorPoint: "top" 293 668 mark 0
LayerCount: 2
Fore
SplineSet
177 855 m 258
 408 1169 l 258
 493 1284 329 1389 269 1262 c 258
 99 904 l 258
 72 849 143 809 177 855 c 258
485 834 m 258
 786 1169 l 258
 880 1273 723 1382 647 1262 c 258
 407 883 l 258
 375 832 447 792 485 834 c 258
EndSplineSet
EndChar

StartChar: hyphen
Encoding: 45 45 249
Width: 751
VWidth: 0
Flags: HW
AnchorPoint: "mid" 430 667 mark 0
LayerCount: 2
Fore
SplineSet
196 527 m 256
 281 568 341 604 606 642 c 256
 652 648 666 663 666 694 c 256
 666 737 633 748 601 748 c 257
 365 733 241 703 178 669 c 256
 115 635 113 598 120 569 c 256
 128 536 160 510 196 527 c 256
EndSplineSet
EndChar

StartChar: i
Encoding: 105 105 250
Width: 420
VWidth: 0
Flags: HW
PickledData: "(dp1
S'com.typemytype.robofont.layerData'
p2
(dp3
s."
AnchorPoint: "ogonek" 0 0 basechar 0
LayerCount: 2
Fore
SplineSet
249 -4 m 256
 357 -19 488 40 598 173 c 256
 612 191 620 200 621 215 c 256
 623 258 590 283 555 282 c 256
 540 282 529 275 519 262 c 256
 361 82 239 86 239 220 c 256
 239 319 304 507 356 604 c 256
 376 642 329 672 295 672 c 256
 251 672 220 666 191 611 c 256
 134 505 80 320 80 197 c 256
 80 86 148 10 249 -4 c 256
381 806 m 256
 452 806 500 849 500 922 c 256
 500 986 457 1013 397 1013 c 256
 326 1013 270 972 270 904 c 256
 270 839 312 806 381 806 c 256
EndSplineSet
EndChar

StartChar: integral
Encoding: 8747 8747 259
Width: 963
VWidth: 0
Flags: HW
LayerCount: 2
Fore
SplineSet
360 -90 m 256
 676 -90 699 284 750 605 c 256
 795 886 817 1129 972 1129 c 256
 1023 1129 1049 1079 1097 1079 c 256
 1143 1079 1174 1134 1174 1180 c 256
 1174 1256 1072 1286 996 1286 c 256
 694 1286 645 1003 585 605 c 256
 529 236 544 67 370 67 c 256
 336 67 324 117 294 117 c 256
 248 117 217 62 217 16 c 256
 217 -55 291 -90 360 -90 c 256
EndSplineSet
EndChar

StartChar: j
Encoding: 106 106 262
Width: 452
VWidth: 0
Flags: HW
LayerCount: 2
Fore
SplineSet
164 -426 m 256
 340 -426 409 -196 424 -22 c 256
 434 90 412 187 388 269 c 257
 513 270 679 299 679 433 c 256
 679 462 667 484 638 470 c 257
 513 415 432 405 277 381 c 257
 326 493 l 258
 342 529 367 582 371 626 c 256
 373 652 358 672 329 672 c 256
 236 672 208 645 178 574 c 256
 110 414 40 195 23 0 c 256
 7 -181 -6 -426 164 -426 c 256
201 -269 m 256
 164 -269 164 -180 168 -134 c 256
 182 28 215 172 251 313 c 257
 272 209 300 103 290 -22 c 256
 281 -130 265 -269 201 -269 c 256
381 806 m 256
 452 806 500 849 500 922 c 256
 500 986 457 1013 397 1013 c 256
 326 1013 270 972 270 904 c 256
 270 839 312 806 381 806 c 256
EndSplineSet
EndChar

StartChar: k
Encoding: 107 107 264
Width: 885
VWidth: 0
Flags: HW
AnchorPoint: "top" 990 1240 basechar 0
LayerCount: 2
Fore
SplineSet
664 -14 m 256
 798 -14 956 109 1018 205 c 256
 1052 257 986 349 946 293 c 256
 878 199 778 121 710 111 c 256
 648 102 621 117 627 158 c 256
 649 291 880 323 895 506 c 256
 903 598 855 658 761 659 c 256
 589 661 423 496 233 157 c 257
 233 193 254 364 265 423 c 257
 350 497 762 920 762 1187 c 256
 762 1276 713 1344 619 1344 c 256
 209 1344 95 470 95 161 c 256
 95 94 108 -8 169 -8 c 256
 349 -8 498 483 701 483 c 256
 725 483 725 462 724 451 c 256
 716 373 474 297 492 129 c 256
 504 16 604 -14 664 -14 c 256
291 607 m 257
 323 815 449 1176 569 1176 c 256
 595 1176 606 1163 606 1134 c 256
 606 968 433 771 291 607 c 257
EndSplineSet
EndChar

StartChar: kgreenlandic
Encoding: 312 312 266
Width: 885
VWidth: 0
Flags: HW
LayerCount: 2
Fore
SplineSet
664 -14 m 256
 798 -14 956 109 1018 205 c 256
 1052 257 986 349 946 293 c 256
 878 199 778 121 710 111 c 256
 648 102 621 117 627 158 c 256
 649 291 880 323 895 506 c 256
 903 598 855 658 761 659 c 256
 589 661 423 496 233 157 c 257
 233 193 254 364 265 423 c 257
 606 665 620 896 438 920 c 256
 191 952 95 470 95 161 c 256
 95 94 108 -8 169 -8 c 256
 349 -8 498 483 701 483 c 256
 725 483 725 462 724 451 c 256
 716 373 474 297 492 129 c 256
 504 16 604 -14 664 -14 c 256
279 562 m 257
 303 693 350 794 407 794 c 256
 484 794 375 640 279 562 c 257
EndSplineSet
EndChar

StartChar: l
Encoding: 108 108 267
Width: 510
VWidth: 0
Flags: HW
AnchorPoint: "top" 646 1358 basechar 0
AnchorPoint: "mid" 272 541 basechar 0
LayerCount: 2
Fore
SplineSet
317 -6 m 256
 433 -6 537 43 650 170 c 256
 719 246 619 315 578 268 c 256
 507 188 425 124 351 124 c 256
 245 124 244 274 260 392 c 257
 478 561 726 892 753 1187 c 256
 761 1272 708 1344 618 1344 c 256
 324 1344 140 722 106 368 c 257
 88 143 162 -6 317 -6 c 256
276 540 m 257
 310 748 438 1176 568 1176 c 256
 593 1176 603 1163 602 1134 c 256
 599 968 415 697 276 540 c 257
EndSplineSet
EndChar

StartChar: less
Encoding: 60 60 272
Width: 828
VWidth: 0
Flags: HW
LayerCount: 2
Fore
SplineSet
655 88 m 256
 694 88 727 108 727 144 c 256
 727 201 678 246 636 261 c 258
 178 429 l 257
 739 610 l 258
 770 619 794 635 794 673 c 256
 794 738 753 805 686 783 c 256
 550 739 403 672 276 616 c 256
 192 579 41 558 41 438 c 256
 41 271 210 238 345 192 c 256
 440 160 539 88 655 88 c 256
EndSplineSet
EndChar

StartChar: lessequal
Encoding: 8804 8804 273
Width: 1163
VWidth: 0
Flags: HW
LayerCount: 2
Fore
SplineSet
382 -23 m 258
 777 -23 l 258
 881 -23 958 0 958 91 c 256
 958 124 935 134 901 134 c 258
 704 134 l 257
 398 134 l 257
 320 138 264 129 264 66 c 256
 264 0 306 -23 382 -23 c 258
EndSplineSet
Refer: 272 60 N 1 0 0 1 238 91 2
EndChar

StartChar: logicalnot
Encoding: 172 172 274
Width: 851
VWidth: 0
Flags: HW
LayerCount: 2
Fore
SplineSet
638 154 m 256
 686 154 707 200 710 247 c 258
 724 484 l 258
 724 519 697 538 658 538 c 258
 216 538 l 258
 166 538 119 514 119 466 c 256
 119 423 159 403 205 403 c 258
 585 403 l 257
 576 241 575 239 575 235 c 256
 575 191 596 154 638 154 c 256
EndSplineSet
EndChar

StartChar: lozenge
Encoding: 9674 9674 275
Width: 1002
VWidth: 0
Flags: HW
LayerCount: 2
Fore
SplineSet
772 973 m 258
 746 1043 660 1075 603 988 c 256
 486 810 390 673 286 518 c 257
 470 60 l 258
 497 -10 582 -42 639 45 c 256
 756 223 847 353 951 508 c 257
 772 973 l 258
434 518 m 257
 515 640 598 768 661 865 c 257
 792 508 l 257
 711 386 644 257 581 160 c 257
 434 518 l 257
EndSplineSet
EndChar

StartChar: lslash
Encoding: 322 322 276
Width: 510
VWidth: 0
Flags: HW
LayerCount: 2
Fore
SplineSet
386 258 m 258
 409 268 419 286 419 302 c 256
 419 329 394 355 364 355 c 256
 358 355 351 354 343 350 c 258
 53 221 l 258
 23 208 10 186 10 166 c 256
 10 141 30 118 58 118 c 256
 64 118 75 119 83 123 c 258
 386 258 l 258
EndSplineSet
Refer: 267 108 N 1 0 0 1 0 0 2
EndChar

StartChar: m
Encoding: 109 109 277
Width: 1000
VWidth: 0
Flags: HW
PickledData: "(dp1
S'com.typemytype.robofont.layerData'
p2
(dp3
s."
AnchorPoint: "top" 698 680 basechar 0
LayerCount: 2
Fore
SplineSet
1216 197 m 256
 1235 224 1167 285 1136 253 c 256
 1064 184 1000 122 948 111 c 256
 900 101 880 138 879 183 c 256
 877 296 970 476 962 612 c 256
 960 646 936 674 886 674 c 256
 800 674 683 587 558 259 c 257
 596 411 622 553 622 610 c 256
 622 651 582 672 548 672 c 256
 475 672 345 561 213 234 c 257
 231 391 273 559 288 612 c 256
 299 653 268 675 237 675 c 256
 199 675 173 646 160 606 c 256
 117 480 84 302 80 141 c 256
 78 63 94 -1 160 -1 c 256
 192 -1 224 0 281 118 c 256
 346 252 413 370 504 500 c 257
 468 368 433 188 429 125 c 256
 425 63 433 7 500 -1 c 256
 529 -5 558 10 583 67 c 256
 657 231 769 451 840 510 c 257
 800 388 747 233 748 156 c 256
 749 80 789 -6 891 -5 c 256
 977 -4 1124 71 1216 197 c 256
EndSplineSet
EndChar

StartChar: macron
Encoding: 175 175 278
Width: 420
VWidth: 0
Flags: HW
AnchorPoint: "top" 202 1037 mark 0
AnchorPoint: "mid" 202 1284 mark 0
LayerCount: 2
Fore
SplineSet
-15 1224 m 256
 77 1246 142 1268 409 1250 c 256
 456 1247 473 1259 479 1289 c 256
 488 1332 458 1348 426 1355 c 257
 193 1389 66 1386 -3 1366 c 256
 -72 1346 -81 1310 -80 1280 c 256
 -79 1246 -53 1215 -15 1224 c 256
EndSplineSet
EndChar

StartChar: minus
Encoding: 8722 8722 280
Width: 851
VWidth: 0
Flags: HW
LayerCount: 2
Fore
SplineSet
220 403 m 258
 642 403 l 258
 692 403 717 433 717 484 c 256
 717 519 689 538 650 538 c 258
 232 538 l 258
 182 538 134 514 134 466 c 256
 134 423 174 403 220 403 c 258
EndSplineSet
EndChar

StartChar: mu
Encoding: 181 181 281
Width: 710
VWidth: 0
Flags: HW
LayerCount: 2
Fore
SplineSet
-81 -174 m 258
 -105 -271 25 -319 64 -168 c 258
 113 21 l 257
 135 5 163 -5 197 -9 c 256
 335 -23 426 108 451 176 c 257
 445 113 l 257
 446 29 486 -11 573 -8 c 256
 672 -4 845 106 895 198 c 257
 899 228 853 269 819 269 c 256
 804 269 802 262 785 247 c 256
 763 226 676 134 615 130 c 256
 596 129 581 143 587 200 c 256
 607 372 662 553 679 608 c 256
 689 640 650 675 613 675 c 256
 566 675 542 667 515 571 c 258
 458 366 l 258
 408 188 300 108 231 129 c 256
 201 138 181 178 185 240 c 256
 196 415 287 587 290 622 c 256
 293 654 263 675 222 675 c 256
 189 675 166 668 149 640 c 256
 133 614 92 520 63 397 c 258
 -81 -174 l 258
EndSplineSet
EndChar

StartChar: multiply
Encoding: 215 215 282
Width: 896
VWidth: 0
Flags: HW
LayerCount: 2
Fore
SplineSet
658 118 m 256
 692 118 717 142 717 176 c 256
 717 206 700 230 682 248 c 257
 579 358 l 257
 686 472 l 258
 701 487 712 506 712 533 c 256
 712 569 688 602 652 602 c 256
 630 602 614 590 601 577 c 257
 484 447 l 257
 363 575 l 258
 346 593 329 601 311 601 c 256
 275 601 251 568 251 531 c 256
 251 504 262 486 277 471 c 258
 390 358 l 257
 281 249 l 258
 263 231 246 208 246 178 c 256
 246 144 271 119 305 119 c 256
 335 119 356 135 374 153 c 258
 484 270 l 257
 589 151 l 258
 607 131 628 118 658 118 c 256
EndSplineSet
EndChar

StartChar: n
Encoding: 110 110 283
Width: 704
VWidth: 0
Flags: HW
PickledData: "(dp1
S'com.typemytype.robofont.layerData'
p2
(dp3
s."
AnchorPoint: "top" 500 680 basechar 0
LayerCount: 2
Fore
SplineSet
564 -3 m 256
 633 -3 793 47 890 172 c 256
 910 197 860 295 822 259 c 256
 744 185 664 143 632 137 c 256
 608 132 600 146 606 186 c 256
 621 292 713 515 717 596 c 256
 719 633 671 676 616 677 c 256
 515 679 371 553 223 300 c 257
 243 422 275 533 298 602 c 256
 310 638 285 675 243 675 c 256
 193 675 168 643 153 603 c 256
 105 472 65 294 64 153 c 256
 63 79 69 -1 140 -2 c 256
 195 -3 208 23 233 83 c 256
 273 180 473 449 521 466 c 256
 555 478 444 263 444 126 c 256
 444 21 504 -3 564 -3 c 256
EndSplineSet
EndChar

StartChar: nine
Encoding: 57 57 288
Width: 855
VWidth: 0
Flags: HW
LayerCount: 2
Fore
SplineSet
496 774 m 256
 271 792 122 632 128 413 c 256
 135 144 452 20 612 195 c 257
 537 25 388 -82 218 -160 c 256
 186 -174 169 -202 169 -236 c 256
 169 -272 193 -292 237 -292 c 256
 261 -292 279 -284 300 -274 c 256
 546 -155 799 55 799 418 c 256
 799 641 670 761 496 774 c 256
485 631 m 256
 584 618 641 534 642 453 c 256
 643 329 573 253 439 253 c 256
 228 253 235 665 485 631 c 256
EndSplineSet
EndChar

StartChar: numbersign
Encoding: 35 35 291
Width: 873
VWidth: 0
Flags: HW
LayerCount: 2
Fore
SplineSet
180 -24 m 256
 230 -24 253 1 271 36 c 256
 317 128 360 220 403 312 c 257
 479 312 556 312 630 313 c 257
 547 78 545 76 545 42 c 256
 545 -6 574 -22 620 -22 c 256
 668 -22 690 2 705 38 c 256
 743 130 779 222 813 314 c 257
 815 314 l 258
 909 314 987 336 987 426 c 256
 987 458 962 468 930 471 c 257
 869 471 l 257
 893 538 915 605 937 672 c 257
 1060 672 1135 692 1135 786 c 256
 1135 819 1111 830 1077 830 c 258
 989 830 l 257
 1011 928 1073 1027 1073 1085 c 256
 1073 1117 1065 1144 1028 1144 c 256
 875 1144 855 947 814 830 c 257
 752 830 688 829 626 829 c 257
 658 904 731 1059 731 1082 c 256
 731 1116 725 1142 691 1142 c 256
 620 1142 568 1093 547 1043 c 258
 451 829 l 257
 333 829 244 828 244 748 c 256
 244 688 283 672 382 672 c 257
 291 470 l 257
 187 470 116 463 116 389 c 256
 116 337 181 315 232 315 c 257
 232 315 148 164 121 65 c 256
 100 -11 139 -24 180 -24 c 256
473 468 m 257
 503 537 531 604 560 672 c 257
 758 672 l 257
 710 536 698 502 686 469 c 257
 650 468 614 468 473 468 c 257
EndSplineSet
EndChar

StartChar: o
Encoding: 111 111 292
Width: 645
VWidth: 0
Flags: HW
PickledData: "(dp1
S'com.typemytype.robofont.layerData'
p2
(dp3
s."
AnchorPoint: "top" 423 680 basechar 0
AnchorPoint: "ogonek" 283 29 basechar 0
LayerCount: 2
Fore
SplineSet
262 -11 m 256
 468 -11 542 154 570 262 c 257
 752 311 850 414 910 487 c 256
 939 522 885 600 855 566 c 256
 795 498 704 414 589 394 c 257
 625 553 528 676 396 676 c 256
 197 676 29 470 29 247 c 256
 29 103 122 -11 262 -11 c 256
292 120 m 256
 214 120 188 181 188 256 c 256
 188 376 267 536 377 536 c 256
 421 536 422 486 422 486 c 257
 342 410 353 343 444 300 c 257
 436 225 369 120 292 120 c 256
EndSplineSet
Substitution2: "Single Substitution lookup 3 subtable" ordmasculine
EndChar

StartChar: oe
Encoding: 339 339 297
Width: 954
VWidth: 0
Flags: HW
LayerCount: 2
Fore
SplineSet
1031 263 m 256
 866 104 620 69 574 210 c 257
 815 262 944 346 944 502 c 256
 944 611 859 676 751 676 c 256
 652 676 566 619 505 538 c 257
 474 616 416 671 326 671 c 256
 201 671 44 547 30 306 c 256
 19 116 103 0 265 0 c 256
 347 0 411 49 452 106 c 257
 504 27 595 -9 687 -12 c 256
 861 -17 1027 92 1091 180 c 256
 1137 242 1062 293 1031 263 c 256
330 543 m 256
 397 543 412 453 412 384 c 256
 412 254 373 133 290 125 c 256
 212 118 180 200 184 276 c 256
 192 426 236 543 330 543 c 256
563 301 m 257
 563 417 659 542 760 542 c 256
 794 542 824 526 819 477 c 256
 811 400 647 330 563 301 c 257
EndSplineSet
EndChar

StartChar: ogonek
Encoding: 731 731 298
Width: 375
VWidth: 0
Flags: HW
PickledData: "(dp1
S'com.typemytype.robofont.layerData'
p2
(dp3
s."
AnchorPoint: "ogonek" 251 0 mark 0
LayerCount: 2
Fore
SplineSet
202 -314 m 256
 251 -316 332 -303 388 -253 c 256
 400 -243 401 -220 401 -200 c 256
 401 -179 389 -140 372 -153 c 256
 324 -188 285 -201 258 -200 c 256
 231 -199 215 -185 213 -165 c 256
 205 -95 277 -12 304 17 c 257
 248 17 l 257
 158 -35 83 -112 90 -204 c 256
 95 -273 131 -311 202 -314 c 256
EndSplineSet
EndChar

StartChar: one
Encoding: 49 49 302
Width: 681
VWidth: 0
Flags: HW
LayerCount: 2
Fore
SplineSet
432 22 m 256
 501 348 595 854 608 918 c 256
 619 973 611 1015 569 1007 c 256
 498 993 322 957 265 939 c 256
 216 924 223 780 275 794 c 256
 302 801 402 830 434 842 c 257
 386 610 344 418 269 46 c 256
 251 -44 419 -38 432 22 c 256
EndSplineSet
EndChar

StartChar: onehalf
Encoding: 189 189 303
Width: 2043
VWidth: 0
Flags: HW
LayerCount: 2
Fore
SplineSet
1480 1 m 256
 1565 1 1632 46 1687 92 c 257
 1735 54 1795 1 1873 1 c 256
 1965 1 1995 84 1995 155 c 256
 1995 180 1989 199 1970 199 c 256
 1945 199 1933 160 1900 160 c 256
 1851 160 1816 173 1782 193 c 257
 1892 314 1981 484 1982 654 c 256
 1984 941 1796 1027 1646 1021 c 256
 1465 1014 1324 923 1324 735 c 256
 1324 645 1355 586 1436 586 c 256
 1527 586 1494 643 1477 741 c 256
 1462 831 1564 886 1649 888 c 256
 1768 891 1824 789 1819 622 c 256
 1815 510 1769 368 1675 277 c 257
 1609 321 1533 364 1439 364 c 256
 1337 364 1271 294 1271 193 c 256
 1271 80 1369 1 1480 1 c 256
1462 127 m 256
 1417 127 1393 159 1393 188 c 256
 1393 212 1409 234 1442 234 c 256
 1489 234 1555 212 1589 190 c 257
 1549 149 1496 127 1462 127 c 256
768 -33 m 258
 1287 1170 l 258
 1322 1251 1205 1330 1154 1215 c 258
 634 40 l 258
 589 -62 732 -118 768 -33 c 258
432 442 m 256
 501 768 595 1274 608 1338 c 256
 619 1393 611 1435 569 1427 c 256
 498 1413 322 1377 265 1359 c 256
 216 1344 223 1200 275 1214 c 256
 302 1221 402 1250 434 1262 c 257
 386 1030 344 838 269 466 c 256
 251 376 419 382 432 442 c 256
EndSplineSet
Ligature2: "fracDiagonalFractionsinLatinloo subtable" one slash two
EndChar

StartChar: onequarter
Encoding: 188 188 304
Width: 2043
VWidth: 0
Flags: HW
LayerCount: 2
Fore
SplineSet
1688 -40 m 256
 1728 -40 1754 -32 1772 44 c 258
 1796 141 l 257
 1924 144 l 258
 1998 145 2013 278 1950 277 c 258
 1825 276 l 257
 1840 342 1891 548 1905 609 c 256
 1913 646 1880 657 1844 657 c 256
 1794 657 1769 633 1756 590 c 256
 1742 538 1684 322 1675 279 c 257
 1491 279 l 257
 1557 489 1644 753 1693 920 c 256
 1714 992 1575 1015 1549 941 c 256
 1494 783 1374 424 1326 266 c 256
 1296 165 1321 139 1378 139 c 258
 1643 139 l 257
 1623 45 l 258
 1612 -8 1624 -40 1688 -40 c 256
824 -33 m 258
 1343 1170 l 258
 1378 1251 1261 1330 1210 1215 c 258
 690 40 l 258
 645 -62 788 -118 824 -33 c 258
432 442 m 256
 501 768 595 1274 608 1338 c 256
 619 1393 611 1435 569 1427 c 256
 498 1413 322 1377 265 1359 c 256
 216 1344 223 1200 275 1214 c 256
 302 1221 402 1250 434 1262 c 257
 386 1030 344 838 269 466 c 256
 251 376 419 382 432 442 c 256
EndSplineSet
Ligature2: "fracDiagonalFractionsinLatinloo subtable" one slash four
EndChar

StartChar: ordfeminine
Encoding: 170 170 306
Width: 649
VWidth: 0
Flags: HW
LayerCount: 2
Fore
SplineSet
498 559 m 256
 597 559 674 651 717 711 c 257
 688 845 l 257
 643 785 604 698 517 698 c 256
 491 698 491 729 491 759 c 256
 491 860 529 942 529 1041 c 256
 529 1096 505 1097 455 1097 c 256
 406 1097 413 1142 371 1142 c 256
 343 1142 315 1136 288 1124 c 256
 160 1067 45 916 45 733 c 256
 45 637 103 561 197 561 c 256
 279 561 347 615 386 660 c 257
 407 608 434 559 498 559 c 256
247 678 m 256
 208 678 200 719 200 759 c 256
 200 868 277 1027 388 1027 c 257
 351 849 l 258
 339 791 313 678 247 678 c 256
EndSplineSet
EndChar

StartChar: ordmasculine
Encoding: 186 186 307
Width: 559
VWidth: 0
Flags: HW
LayerCount: 2
Fore
SplineSet
268 677 m 256
 202 677 181 734 181 800 c 256
 181 885 222 1026 303 1026 c 256
 361 1026 374 954 374 894 c 256
 374 818 339 677 268 677 c 256
248 561 m 256
 418 561 506 740 506 911 c 256
 506 1032 458 1142 338 1142 c 256
 167 1142 49 997 49 825 c 256
 49 686 108 561 248 561 c 256
EndSplineSet
EndChar

StartChar: oslash
Encoding: 248 248 308
Width: 660
VWidth: 0
Flags: HW
LayerCount: 2
Fore
SplineSet
27 -101 m 256
 228 180 477 495 830 736 c 256
 872 765 829 845 765 800 c 256
 424 561 187 222 -10 -49 c 256
 -51 -105 4 -133 27 -101 c 256
EndSplineSet
Refer: 292 111 N 1 0 0 1 0 0 2
EndChar

StartChar: p
Encoding: 112 112 311
Width: 712
VWidth: 0
Flags: HW
PickledData: "(dp1
S'com.typemytype.robofont.layerData'
p2
(dp3
s."
AnchorPoint: "top" 542 680 basechar 0
LayerCount: 2
Fore
SplineSet
606 259 m 256
 718 266 915 393 988 481 c 257
 1001 491 1008 507 1009 523 c 256
 1011 553 995 584 971 584 c 256
 965 584 958 582 950 577 c 257
 876 508 735 396 655 396 c 256
 649 396 597 486 547 486 c 256
 537 486 526 481 518 469 c 257
 468 428 459 405 457 370 c 256
 451 292 508 253 606 259 c 256
-10 -491 m 256
 31 -491 97 -452 106 -419 c 257
 126 -360 184 -16 200 44 c 257
 238 8 278 -11 321 -11 c 256
 527 -11 669 231 683 431 c 256
 692 563 637 676 496 676 c 256
 208 676 140 398 73 178 c 256
 60 135 -30 -306 -38 -403 c 256
 -42 -450 -37 -491 -10 -491 c 256
327 127 m 256
 294 127 261 139 225 167 c 257
 257 270 290 542 454 542 c 256
 511 542 544 465 538 391 c 256
 529 268 439 127 327 127 c 256
EndSplineSet
EndChar

StartChar: paragraph
Encoding: 182 182 312
Width: 915
VWidth: 0
Flags: HW
LayerCount: 2
Fore
SplineSet
470 -52 m 258
 672 1029 l 257
 700 1029 779 1023 799 1020 c 257
 612 -23 l 258
 592 -135 768 -142 785 -52 c 258
 951 853 l 258
 964 927 988 998 988 1063 c 256
 988 1220 770 1220 603 1220 c 256
 426 1220 116 1131 116 906 c 256
 116 728 286 648 424 648 c 257
 302 -32 l 258
 285 -126 450 -163 470 -52 c 258
EndSplineSet
EndChar

StartChar: parenleft
Encoding: 40 40 313
Width: 816
VWidth: 0
Flags: HW
LayerCount: 2
Fore
SplineSet
728 -265 m 256
 778 -265 883 -259 883 -197 c 256
 883 -132 803 -147 724 -134 c 256
 519 -99 441 72 441 301 c 256
 441 606 593 963 881 1172 c 256
 948 1221 984 1263 984 1298 c 256
 984 1325 966 1342 934 1342 c 256
 919 1342 902 1338 881 1329 c 256
 488 1151 262 701 262 287 c 256
 262 -36 427 -265 728 -265 c 256
EndSplineSet
EndChar

StartChar: parenright
Encoding: 41 41 314
Width: 870
VWidth: 0
Flags: HW
LayerCount: 2
Fore
SplineSet
148 -265 m 256
 525 -265 759 91 759 538 c 256
 759 870 619 1186 335 1329 c 256
 316 1338 298 1342 283 1342 c 256
 249 1342 223 1320 223 1286 c 256
 223 1254 251 1215 301 1172 c 256
 490 1010 578 759 578 513 c 256
 578 183 446 -91 181 -134 c 256
 101 -147 6 -131 6 -208 c 256
 6 -260 100 -265 148 -265 c 256
EndSplineSet
EndChar

StartChar: percent
Encoding: 37 37 317
Width: 1582
VWidth: 0
Flags: HW
LayerCount: 2
Fore
SplineSet
318 470 m 256
 353 470 386 476 417 489 c 256
 561 549 665 716 665 918 c 256
 665 1087 586 1210 416 1210 c 256
 188 1210 66 1012 66 784 c 256
 66 614 149 470 318 470 c 256
331 605 m 256
 259 605 245 722 245 799 c 256
 245 917 284 1075 398 1075 c 256
 474 1075 494 998 494 920 c 256
 494 806 442 605 331 605 c 256
585 71 m 258
 1158 1090 l 258
 1226 1210 1125 1276 1063 1170 c 258
 458 139 l 258
 382 9 512 -59 585 71 c 258
1209 123 m 256
 1141 123 1126 219 1126 290 c 256
 1126 414 1157 594 1275 594 c 256
 1348 594 1358 479 1358 403 c 256
 1358 299 1311 123 1209 123 c 256
1196 -11 m 256
 1388 -11 1530 182 1530 416 c 256
 1530 586 1463 728 1294 728 c 256
 1061 728 946 515 946 281 c 256
 946 117 1031 -11 1196 -11 c 256
EndSplineSet
EndChar

StartChar: period
Encoding: 46 46 318
Width: 414
VWidth: 0
Flags: HW
LayerCount: 2
Fore
SplineSet
206 1 m 256
 291 1 340 55 340 137 c 256
 340 213 296 252 219 252 c 256
 135 252 88 198 88 116 c 256
 88 40 130 1 206 1 c 256
EndSplineSet
EndChar

StartChar: periodcentered
Encoding: 183 183 319
Width: 492
VWidth: 0
Flags: HW
AnchorPoint: "mid" 0 127 mark 0
LayerCount: 2
Fore
SplineSet
430 0 m 256
 513 0 561 54 561 134 c 256
 561 208 519 247 443 247 c 256
 361 247 315 193 315 113 c 256
 315 38 356 0 430 0 c 256
EndSplineSet
EndChar

StartChar: perthousand
Encoding: 8240 8240 320
Width: 2245
VWidth: 0
Flags: HW
LayerCount: 2
Fore
SplineSet
360 503 m 256
 552 497 688 628 701 898 c 256
 709 1070 616 1230 444 1235 c 256
 221 1241 97 1037 97 808 c 256
 97 636 185 508 360 503 c 256
584 -8 m 256
 739 298 1049 918 1148 1125 c 256
 1178 1189 1075 1278 1026 1180 c 256
 924 976 614 353 466 64 c 256
 397 -71 534 -106 584 -8 c 256
1153 -31 m 256
 1346 -51 1487 102 1502 354 c 256
 1512 517 1428 680 1266 698 c 256
 1044 722 911 524 903 302 c 256
 897 130 991 -14 1153 -31 c 256
1840 -36 m 256
 2035 -49 2173 107 2183 360 c 256
 2189 523 2102 684 1940 696 c 256
 1717 712 1589 510 1585 288 c 256
 1582 116 1678 -25 1840 -36 c 256
367 629 m 256
 186 633 211 1107 436 1101 c 256
 613 1096 606 625 367 629 c 256
1169 93 m 256
 979 114 1024 592 1247 570 c 257
 1424 553 1383 69 1169 93 c 256
1853 88 m 256
 1664 103 1701 582 1926 568 c 256
 2102 557 2070 71 1853 88 c 256
EndSplineSet
EndChar

StartChar: pi
Encoding: 960 960 321
Width: 1216
VWidth: 0
Flags: HW
LayerCount: 2
Fore
SplineSet
631 818 m 256
 406 818 244 746 244 507 c 256
 244 446 344 426 359 483 c 256
 402 644 428 672 556 677 c 257
 438 379 351 124 353 56 c 256
 354 12 371 -28 426 -28 c 256
 481 -28 557 112 512 67 c 257
 544 238 622 432 682 676 c 257
 755 672 801 662 890 654 c 257
 756 -61 847 -63 965 -27 c 256
 1080 7 931 75 1022 645 c 257
 1056 643 1092 643 1128 643 c 256
 1284 643 1297 749 1297 709 c 257
 1298 752 1265 788 1227 784 c 257
 948 784 847 818 631 818 c 256
EndSplineSet
EndChar

StartChar: plus
Encoding: 43 43 322
Width: 1052
VWidth: 0
Flags: HW
LayerCount: 2
Fore
SplineSet
538 42 m 256
 584 42 606 87 606 135 c 258
 606 291 l 257
 767 291 l 258
 813 291 850 322 850 368 c 256
 850 404 821 426 780 426 c 258
 606 426 l 257
 606 598 l 258
 606 639 583 668 547 668 c 256
 501 668 471 631 471 585 c 258
 471 426 l 257
 317 426 l 258
 269 426 224 404 224 358 c 256
 224 312 266 291 314 291 c 258
 471 291 l 257
 471 132 l 258
 471 84 492 42 538 42 c 256
EndSplineSet
EndChar

StartChar: plusminus
Encoding: 177 177 323
Width: 1052
VWidth: 0
Flags: HW
LayerCount: 2
Fore
SplineSet
538 179 m 256
 584 179 606 224 606 272 c 258
 606 428 l 257
 767 428 l 258
 813 428 850 459 850 505 c 256
 850 541 821 563 780 563 c 258
 606 563 l 257
 606 736 l 258
 606 777 583 806 547 806 c 256
 501 806 471 768 471 722 c 258
 471 563 l 257
 317 563 l 258
 269 563 224 541 224 495 c 256
 224 449 266 428 314 428 c 258
 471 428 l 257
 471 270 l 258
 471 222 492 179 538 179 c 256
344 -78 m 256
 346 -78 349 -77 705 -69 c 256
 752 -68 779 -33 779 5 c 256
 779 32 756 58 706 58 c 258
 351 57 l 258
 304 57 284 22 284 -11 c 256
 284 -45 305 -78 344 -78 c 256
EndSplineSet
EndChar

StartChar: product
Encoding: 8719 8719 324
Width: 1590
VWidth: 0
Flags: HW
LayerCount: 2
Fore
SplineSet
282 1268 m 256
 199 1257 213 1094 293 1107 c 256
 390 1123 433 1132 631 1131 c 257
 331 419 307 -22 323 -84 c 256
 357 -214 502 -213 524 -74 c 256
 538 11 534 339 773 1130 c 257
 837 1129 912 1128 1000 1126 c 256
 1141 1123 1251 1120 1339 1118 c 257
 1097 372 1099 -22 1114 -84 c 256
 1148 -214 1293 -213 1315 -74 c 256
 1329 11 1258 335 1482 1114 c 257
 1556 1114 1710 1116 1758 1121 c 256
 1810 1126 1854 1284 1749 1284 c 256
 1001 1284 664 1318 282 1268 c 256
EndSplineSet
EndChar

StartChar: q
Encoding: 113 113 325
Width: 762
VWidth: 0
Flags: HW
LayerCount: 2
Fore
SplineSet
430 104 m 257
 130 48 202 570 452 570 c 256
 493 570 552 556 550 545 c 256
 537 484 481 246 430 104 c 257
604 146 m 258
 634 251 686 447 706 551 c 256
 717 607 582 685 441 685 c 257
 -34 667 -32 -95 406 -17 c 257
 368 -158 307 -345 258 -493 c 256
 239 -549 389 -619 415 -525 c 258
 604 146 l 258
589 144 m 257
 696 155 893 357 951 474 c 256
 976 526 903 590 864 534 c 256
 791 428 668 301 594 275 c 257
 369 382 360 1 589 144 c 257
EndSplineSet
EndChar

StartChar: question
Encoding: 63 63 326
Width: 787
VWidth: 0
Flags: HW
LayerCount: 2
Fore
SplineSet
400 490 m 256
 399 466 418 452 438 453 c 256
 458 454 479 468 484 500 c 256
 508 650 857 717 867 1011 c 256
 873 1194 708 1311 540 1309 c 256
 407 1307 272 1232 215 1057 c 256
 196 1000 293 953 313 994 c 256
 368 1107 465 1157 548 1154 c 256
 631 1151 699 1097 695 998 c 256
 686 779 408 743 400 490 c 256
412 0 m 256
 495 0 543 54 543 134 c 256
 543 208 501 247 425 247 c 256
 343 247 297 193 297 113 c 256
 297 38 338 0 412 0 c 256
EndSplineSet
EndChar

StartChar: questiondown
Encoding: 191 191 327
Width: 904
VWidth: 0
Flags: HW
LayerCount: 2
Fore
SplineSet
540 0 m 256
 639 0 802 62 802 162 c 256
 802 204 775 243 734 243 c 256
 713 243 697 232 687 218 c 256
 658 180 605 134 540 134 c 256
 446 134 429 243 458 321 c 256
 520 483 724 510 724 736 c 256
 724 768 695 781 663 781 c 256
 624 781 604 747 591 713 c 256
 580 684 560 661 539 641 c 256
 423 528 276 468 276 237 c 256
 276 89 394 0 540 0 c 256
685 874 m 256
 767 874 813 928 813 1008 c 256
 813 1083 772 1121 698 1121 c 256
 615 1121 566 1068 566 988 c 256
 566 914 609 874 685 874 c 256
EndSplineSet
EndChar

StartChar: quotedbl
Encoding: 34 34 328
Width: 828
VWidth: 0
Flags: HW
LayerCount: 2
Fore
SplineSet
465 794 m 256
 498 794 522 826 529 861 c 256
 548 961 561 1080 575 1223 c 256
 576 1227 576 1229 576 1233 c 256
 576 1277 543 1299 507 1299 c 256
 456 1299 403 1267 403 1210 c 256
 403 1092 409 983 409 863 c 256
 409 824 429 794 465 794 c 256
217 794 m 256
 246 794 269 826 274 861 c 256
 287 961 300 1104 300 1223 c 256
 300 1274 267 1299 224 1299 c 256
 180 1299 134 1267 134 1210 c 256
 134 1092 150 968 161 863 c 256
 166 824 181 794 217 794 c 256
EndSplineSet
EndChar

StartChar: quotedblbase
Encoding: 8222 8222 329
Width: 717
VWidth: 0
Flags: HW
LayerCount: 2
Fore
SplineSet
258 -134 m 256
 329 -134 360 -53 391 -6 c 256
 406 18 408 18 423 42 c 256
 442 71 470 101 470 144 c 256
 470 198 415 225 360 225 c 256
 312 225 274 204 264 166 c 256
 243 90 201 7 201 -76 c 256
 201 -110 225 -134 258 -134 c 256
531 -134 m 256
 602 -134 634 -53 665 -6 c 258
 696 42 l 258
 715 71 743 101 743 144 c 256
 743 198 689 225 634 225 c 256
 586 225 548 204 538 166 c 256
 517 90 475 7 475 -76 c 256
 475 -110 498 -134 531 -134 c 256
EndSplineSet
EndChar

StartChar: quotedblleft
Encoding: 8220 8220 330
Width: 828
VWidth: 0
Flags: HW
LayerCount: 2
Fore
SplineSet
604 1334 m 256
 564 1334 538 1302 526 1268 c 256
 493 1177 424 979 424 871 c 256
 424 820 462 794 513 794 c 256
 571 794 624 827 624 884 c 256
 624 990 653 1158 653 1266 c 256
 653 1305 633 1334 604 1334 c 256
285 1334 m 256
 245 1334 218 1302 206 1268 c 256
 173 1177 104 979 104 871 c 256
 104 820 143 794 194 794 c 256
 252 794 304 827 304 884 c 256
 304 990 334 1158 334 1266 c 256
 334 1305 314 1334 285 1334 c 256
EndSplineSet
EndChar

StartChar: quotedblright
Encoding: 8221 8221 331
Width: 828
VWidth: 0
Flags: HW
LayerCount: 2
Fore
SplineSet
161 794 m 256
 201 794 227 827 239 861 c 256
 272 952 342 1150 342 1258 c 256
 342 1309 303 1334 252 1334 c 256
 194 1334 141 1302 141 1245 c 256
 141 1139 112 971 112 863 c 256
 112 824 132 794 161 794 c 256
480 794 m 256
 520 794 546 827 558 861 c 256
 591 952 660 1150 660 1258 c 256
 660 1309 621 1334 570 1334 c 256
 512 1334 460 1302 460 1245 c 256
 460 1139 430 971 430 863 c 256
 430 824 451 794 480 794 c 256
EndSplineSet
EndChar

StartChar: quoteleft
Encoding: 8216 8216 332
Width: 492
VWidth: 0
Flags: HW
LayerCount: 2
Fore
SplineSet
202 829 m 256
 247 829 284 861 291 918 c 256
 328 1233 328 1236 328 1240 c 256
 328 1274 310 1298 286 1298 c 256
 250 1298 224 1266 214 1232 c 257
 181 1140 119 1013 119 905 c 256
 119 853 155 829 202 829 c 256
EndSplineSet
EndChar

StartChar: quoteright
Encoding: 8217 8217 333
Width: 448
VWidth: 0
Flags: HW
LayerCount: 2
Fore
SplineSet
189 830 m 256
 218 830 238 855 246 882 c 258
 349 1202 l 258
 352 1211 353 1220 353 1228 c 256
 353 1274 309 1299 273 1299 c 256
 225 1299 180 1267 176 1210 c 258
 154 898 l 257
 154 855 169 830 189 830 c 256
EndSplineSet
EndChar

StartChar: quotesinglbase
Encoding: 8218 8218 334
Width: 426
VWidth: 0
Flags: HW
LayerCount: 2
Fore
SplineSet
258 -134 m 256
 329 -134 360 -53 391 -6 c 256
 406 18 408 18 423 42 c 256
 442 71 470 101 470 144 c 256
 470 198 415 225 360 225 c 256
 312 225 274 204 264 166 c 256
 243 90 201 7 201 -76 c 256
 201 -110 225 -134 258 -134 c 256
EndSplineSet
EndChar

StartChar: quotesingle
Encoding: 39 39 335
Width: 366
VWidth: 0
Flags: HW
LayerCount: 2
Fore
SplineSet
123 776 m 256
 169 776 174 790 214 853 c 256
 242 895 404 1103 404 1224 c 256
 404 1270 378 1303 304 1303 c 256
 212 1303 136 954 90 860 c 257
 76 821 110 776 123 776 c 256
EndSplineSet
EndChar

StartChar: r
Encoding: 114 114 336
Width: 590
VWidth: 0
Flags: HW
PickledData: "(dp1
S'com.typemytype.robofont.layerData'
p2
(dp3
s."
AnchorPoint: "top" 500 680 basechar 0
LayerCount: 2
Fore
SplineSet
153 0 m 256
 208 0 226 20 241 54 c 257
 352 357 467 523 463 514 c 256
 401 373 414 247 600 265 c 256
 678 273 760 328 808 373 c 256
 838 401 782 476 750 458 c 256
 609 375 540 382 567 458 c 256
 616 599 630 674 514 674 c 256
 422 674 254 391 211 258 c 257
 231 366 272 534 289 602 c 256
 298 638 273 675 232 675 c 256
 182 675 155 650 134 583 c 256
 96 461 70 292 69 151 c 256
 68 75 77 0 153 0 c 256
EndSplineSet
EndChar

StartChar: registered
Encoding: 174 174 341
Width: 1276
VWidth: 0
Flags: HW
LayerCount: 2
Fore
SplineSet
680 279 m 256
 691 201 819 204 807 290 c 258
 763 605 l 257
 687 547 l 257
 830 560 921 630 921 739 c 256
 921 843 833 883 727 883 c 256
 684 883 594 874 552 874 c 257
 480 640 l 257
 468 640 454 645 442 645 c 256
 429 645 421 629 421 616 c 256
 421 593 441 583 460 572 c 257
 395 332 l 258
 375 257 489 211 514 309 c 258
 576 547 l 257
 645 547 l 257
 651 526 668 363 680 279 c 256
639 141 m 256
 397 141 219 263 219 507 c 256
 219 767 390 991 762 976 c 256
 969 968 1086 855 1086 651 c 256
 1086 374 920 141 639 141 c 256
643 27 m 256
 916 27 1222 233 1222 645 c 256
 1222 931 1035 1078 745 1090 c 256
 380 1105 94 879 94 507 c 256
 94 204 323 27 643 27 c 256
603 631 m 257
 645 788 l 257
 687 788 l 258
 771 788 806 773 806 725 c 256
 806 653 673 622 603 631 c 257
EndSplineSet
EndChar

StartChar: ring
Encoding: 730 730 342
Width: 515
VWidth: 0
Flags: HW
PickledData: "(dp1
S'com.typemytype.robofont.layerData'
p2
(dp3
s."
AnchorPoint: "top" 231 680 mark 0
AnchorPoint: "top" 306 1126 basechar 0
LayerCount: 2
Fore
SplineSet
243 892 m 256
 201 892 175 921 175 963 c 256
 175 1029 229 1072 298 1072 c 256
 338 1072 359 1047 359 1009 c 256
 359 945 309 892 243 892 c 256
243 798 m 256
 370 798 461 888 461 1018 c 256
 461 1106 401 1163 316 1163 c 256
 195 1163 80 1086 80 964 c 256
 80 862 144 798 243 798 c 256
EndSplineSet
EndChar

StartChar: s
Encoding: 115 115 343
Width: 599
VWidth: 0
Flags: HW
PickledData: "(dp1
S'com.typemytype.robofont.layerData'
p2
(dp3
s."
AnchorPoint: "top" 466 680 basechar 0
AnchorPoint: "bot" 298 36 basechar 0
LayerCount: 2
Fore
SplineSet
361 -11 m 256
 596 -11 753 77 827 195 c 256
 858 244 784 340 746 293 c 256
 720 262 642 159 544 128 c 257
 652 310 347 479 395 561 c 256
 470 688 306 743 246 629 c 256
 208 552 52 244 6 165 c 257
 54 71 185 -11 361 -11 c 256
309 106 m 256
 266 107 222 135 186 162 c 257
 207 203 241 271 270 330 c 258
 321 437 l 257
 454 239 457 101 309 106 c 256
EndSplineSet
EndChar

StartChar: section
Encoding: 167 167 350
Width: 1007
VWidth: 0
Flags: HW
LayerCount: 2
Fore
SplineSet
477 -82 m 256
 634 -82 801 -15 801 140 c 256
 801 192 786 231 765 263 c 257
 816 301 860 355 860 438 c 256
 860 569 744 632 657 680 c 256
 607 708 453 757 453 830 c 256
 453 890 518 918 582 918 c 256
 662 918 748 883 748 804 c 256
 748 789 741 771 741 756 c 256
 741 722 768 699 801 699 c 256
 855 699 879 749 879 806 c 256
 879 949 745 1044 602 1044 c 256
 447 1044 277 985 277 838 c 256
 277 779 306 740 337 708 c 257
 282 674 232 623 232 547 c 256
 232 455 296 406 356 370 c 256
 436 322 624 272 624 147 c 256
 624 77 552 43 481 43 c 256
 395 43 304 72 304 157 c 256
 304 193 317 221 317 250 c 256
 317 277 288 286 259 286 c 256
 197 286 157 222 157 156 c 256
 157 -8 311 -82 477 -82 c 256
668 360 m 257
 648 373 628 387 606 398 c 256
 553 426 388 473 388 551 c 256
 388 589 409 616 433 636 c 257
 464 618 496 600 528 585 c 256
 585 557 704 514 704 438 c 256
 704 404 687 378 668 360 c 257
EndSplineSet
EndChar

StartChar: semicolon
Encoding: 59 59 351
Width: 537
VWidth: 0
Flags: HW
LayerCount: 2
Fore
SplineSet
258 -134 m 256
 410 -134 470 -4 470 144 c 256
 470 198 415 225 360 225 c 256
 312 225 274 204 264 166 c 256
 243 90 201 7 201 -76 c 256
 201 -110 225 -134 258 -134 c 256
381 470 m 256
 464 470 512 524 512 604 c 256
 512 678 470 718 394 718 c 256
 312 718 266 664 266 584 c 256
 266 509 307 470 381 470 c 256
EndSplineSet
EndChar

StartChar: seven
Encoding: 55 55 352
Width: 855
VWidth: 0
Flags: HW
LayerCount: 2
Fore
SplineSet
458 42 m 256
 521 251 644 525 804 778 c 257
 815 798 872 840 872 890 c 256
 872 926 860 954 825 954 c 256
 809 954 744 947 715 947 c 256
 565 947 427 951 292 951 c 256
 201 951 182 766 300 780 c 256
 353 786 421 823 522 825 c 258
 670 828 l 257
 502 574 344 245 295 69 c 256
 269 -25 424 -72 458 42 c 256
EndSplineSet
EndChar

StartChar: six
Encoding: 54 54 353
Width: 816
VWidth: 0
Flags: HW
LayerCount: 2
Fore
SplineSet
419 -22 m 256
 644 -40 794 120 788 339 c 256
 781 608 464 732 304 557 c 257
 379 727 528 834 698 912 c 256
 730 926 747 954 747 988 c 256
 747 1024 722 1044 678 1044 c 256
 654 1044 637 1036 616 1026 c 256
 370 907 116 697 116 334 c 256
 116 111 245 -9 419 -22 c 256
430 120 m 256
 331 133 275 218 274 299 c 256
 273 423 343 498 477 498 c 256
 688 498 680 86 430 120 c 256
EndSplineSet
EndChar

StartChar: slash
Encoding: 47 47 354
Width: 873
VWidth: 0
Flags: HW
LayerCount: 2
Fore
SplineSet
339 45 m 256
 472 352 667 807 809 1142 c 256
 846 1230 716 1301 664 1180 c 256
 526 861 346 449 207 127 c 256
 143 -22 301 -43 339 45 c 256
EndSplineSet
EndChar

StartChar: sterling
Encoding: 163 163 356
Width: 1053
VWidth: 0
Flags: HW
LayerCount: 2
Fore
SplineSet
505 -20 m 256
 585 -20 676 -10 750 -1 c 256
 858 12 1028 2 1028 119 c 256
 1028 168 968 190 919 190 c 256
 793 190 708 150 571 150 c 257
 566 155 608 394 624 538 c 257
 800 538 l 258
 860 538 911 551 911 608 c 256
 911 671 863 694 801 694 c 258
 633 694 l 257
 633 875 679 1029 857 1029 c 256
 926 1029 967 1018 967 949 c 256
 967 911 1002 886 1040 886 c 256
 1090 886 1114 927 1114 979 c 256
 1114 1134 1010 1200 856 1200 c 256
 577 1200 454 980 454 694 c 257
 375 694 l 258
 317 694 284 670 284 615 c 256
 284 571 311 538 358 538 c 258
 440 538 l 257
 430 427 393 311 382 204 c 257
 372 174 360 132 360 94 c 256
 360 10 417 -20 505 -20 c 256
EndSplineSet
EndChar

StartChar: summation
Encoding: 8721 8721 357
Width: 1579
VWidth: 0
Flags: HW
LayerCount: 2
Fore
SplineSet
811 1334 m 256
 624 1334 501 1315 384 1270 c 256
 302 1238 337 1103 436 1139 c 257
 475 1139 512 1164 559 1172 c 257
 869 648 l 257
 486 307 240 118 248 45 c 256
 256 -21 341 -37 424 52 c 257
 720 -45 1039 -167 1469 23 c 257
 1537 48 1486 178 1420 150 c 256
 1186 53 968 2 519 172 c 257
 654 306 846 436 1050 622 c 257
 718 1188 l 257
 756 1189 797 1190 841 1190 c 256
 985 1190 1230 1180 1371 1183 c 256
 1533 1187 1548 1215 1548 1256 c 257
 1548 1209 1512 1340 1469 1336 c 256
 1203 1315 1062 1334 811 1334 c 256
EndSplineSet
EndChar

StartChar: t
Encoding: 116 116 358
Width: 533
VWidth: 0
Flags: HW
PickledData: "(dp1
S'com.typemytype.robofont.layerData'
p2
(dp3
s."
AnchorPoint: "top" 650 1170 basechar 0
AnchorPoint: "caron.alt" 736 1128 basechar 0
AnchorPoint: "mid" 296 241 basechar 0
LayerCount: 2
Fore
SplineSet
300 -6 m 256
 416 -6 520 43 633 170 c 256
 702 246 602 315 561 268 c 256
 490 188 408 124 334 124 c 256
 227 124 246 368 265 505 c 257
 434 624 676 872 696 1130 c 256
 702 1204 664 1276 565 1277 c 256
 302 1281 139 751 106 444 c 256
 82 217 125 -6 300 -6 c 256
83 344 m 256
 153 387 446 504 573 526 c 256
 635 536 610 638 541 623 c 256
 437 603 216 532 30 435 c 256
 -19 411 19 304 83 344 c 256
279 621 m 257
 307 802 414 1108 539 1107 c 256
 552 1106 558 1094 555 1078 c 257
 534 893 404 757 279 621 c 257
EndSplineSet
EndChar

StartChar: thorn
Encoding: 254 254 363
Width: 695
VWidth: 0
Flags: HW
LayerCount: 2
Fore
SplineSet
-27 -396 m 258
 -43 -490 101 -496 116 -416 c 258
 202 53 l 257
 238 28 292 0 364 0 c 256
 430 0 481 17 533 65 c 257
 644 83 763 150 853 232 c 257
 914 282 879 392 813 340 c 256
 752 292 646 213 590 202 c 257
 635 256 662 338 656 454 c 256
 650 569 596 672 482 672 c 256
 402 672 336 632 289 564 c 257
 375 1003 l 258
 399 1123 257 1118 239 1030 c 256
 193 801 165 649 145 538 c 258
 -27 -396 l 258
362 134 m 256
 314 134 255 145 223 172 c 257
 243 324 280 533 436 533 c 256
 499 533 526 474 527 402 c 256
 528 286 460 134 362 134 c 256
EndSplineSet
EndChar

StartChar: three
Encoding: 51 51 364
Width: 855
VWidth: 0
Flags: HW
LayerCount: 2
Fore
SplineSet
782 293 m 256
 782 418 714 518 572 554 c 257
 704 582 765 696 765 792 c 256
 765 922 667 987 546 1002 c 256
 415 1018 283 966 209 874 c 256
 175 832 247 730 316 806 c 256
 406 904 594 897 594 760 c 256
 594 652 490 595 366 595 c 256
 308 595 283 576 283 538 c 256
 283 500 304 477 337 477 c 256
 490 477 620 417 620 295 c 256
 620 21 320 82 235 204 c 256
 177 288 54 202 104 124 c 256
 168 24 288 -38 438 -38 c 256
 611 -39 782 54 782 293 c 256
EndSplineSet
EndChar

StartChar: threequarters
Encoding: 190 190 365
Width: 2217
VWidth: 0
Flags: HW
LayerCount: 2
Fore
SplineSet
1674 -40 m 256
 1714 -40 1740 -32 1758 44 c 258
 1782 141 l 257
 1910 144 l 258
 1984 145 1999 278 1936 277 c 258
 1811 276 l 257
 1826 342 1877 548 1891 609 c 256
 1899 646 1866 657 1830 657 c 256
 1780 657 1755 633 1742 590 c 256
 1728 538 1670 322 1661 279 c 257
 1477 279 l 257
 1543 489 1630 753 1679 920 c 256
 1700 992 1561 1015 1535 941 c 256
 1480 783 1360 424 1312 266 c 256
 1282 165 1307 139 1364 139 c 258
 1629 139 l 257
 1609 45 l 258
 1598 -8 1610 -40 1674 -40 c 256
832 -33 m 258
 1352 1170 l 258
 1387 1251 1269 1330 1218 1215 c 258
 699 40 l 258
 654 -62 796 -118 832 -33 c 258
734 713 m 256
 734 838 666 938 524 974 c 257
 656 1002 718 1116 718 1212 c 256
 718 1342 619 1407 498 1422 c 256
 367 1438 235 1386 161 1294 c 256
 127 1252 199 1150 268 1226 c 256
 358 1324 547 1317 547 1180 c 256
 547 1072 442 1015 318 1015 c 256
 260 1015 235 996 235 958 c 256
 235 920 256 897 289 897 c 256
 442 897 573 837 573 715 c 256
 573 441 273 502 188 624 c 256
 130 708 6 622 56 544 c 256
 120 444 241 382 391 382 c 256
 564 381 734 474 734 713 c 256
EndSplineSet
Ligature2: "fracDiagonalFractionsinLatinloo subtable" three slash four
EndChar

StartChar: tilde
Encoding: 732 732 367
Width: 672
VWidth: 0
Flags: HW
AnchorPoint: "top" 294 680 mark 0
LayerCount: 2
Fore
SplineSet
458 872 m 256
 541 872 631 975 631 1055 c 256
 631 1087 605 1106 573 1106 c 256
 504 1106 480 1030 446 992 c 257
 411 1019 382 1042 360 1060 c 256
 319 1093 286 1129 223 1129 c 256
 140 1129 51 1026 51 946 c 256
 51 914 77 895 109 895 c 256
 175 895 205 971 236 1009 c 257
 271 982 299 959 321 941 c 256
 362 908 395 872 458 872 c 256
EndSplineSet
EndChar

StartChar: trademark
Encoding: 8482 8482 368
Width: 1909
VWidth: 0
Flags: HW
LayerCount: 2
Fore
SplineSet
1438 707 m 256
 1376 729 1496 957 1515 1089 c 256
 1528 1177 1466 1236 1376 1236 c 256
 1286 1236 1230 1164 1190 1074 c 257
 1201 1160 1160 1249 1056 1236 c 256
 972 1226 878 1118 815 982 c 257
 834 1041 864 1139 864 1163 c 256
 864 1232 700 1236 596 1236 c 256
 403 1236 188 1222 188 1032 c 256
 188 994 208 966 249 966 c 256
 296 966 331 990 331 1032 c 256
 331 1115 403 1130 511 1130 c 257
 376 721 l 258
 356 661 373 628 416 623 c 256
 462 618 476 649 489 701 c 256
 523 833 575 994 612 1130 c 257
 654 1130 726 1128 765 1120 c 257
 765 1120 675 848 640 695 c 256
 630 649 673 616 718 616 c 256
 756 616 770 651 783 681 c 256
 807 739 831 806 855 868 c 256
 906 1002 971 1091 1021 1105 c 256
 1064 1117 1080 1075 1065 995 c 256
 1049 910 1015 802 988 692 c 256
 978 653 1006 616 1068 616 c 256
 1097 616 1115 637 1124 668 c 256
 1175 835 1231 1105 1350 1105 c 256
 1382 1105 1398 1077 1390 1045 c 256
 1362 935 1323 830 1309 732 c 256
 1299 665 1341 620 1406 609 c 256
 1498 594 1577 657 1629 742 c 256
 1676 819 1581 848 1556 807 c 256
 1525 757 1480 692 1438 707 c 256
EndSplineSet
EndChar

StartChar: two
Encoding: 50 50 369
Width: 855
VWidth: 0
Flags: HW
LayerCount: 2
Fore
SplineSet
292 1 m 256
 377 1 443 46 498 92 c 257
 546 54 607 1 685 1 c 256
 777 1 806 84 806 155 c 256
 806 180 801 199 782 199 c 256
 757 199 745 160 712 160 c 256
 663 160 627 173 593 193 c 257
 703 314 793 484 794 654 c 256
 796 941 607 1027 457 1021 c 256
 276 1014 136 923 136 735 c 256
 136 645 167 586 248 586 c 256
 339 586 305 643 288 741 c 256
 273 831 376 886 461 888 c 256
 580 891 635 789 630 622 c 256
 626 510 580 368 486 277 c 257
 420 321 345 364 251 364 c 256
 149 364 83 294 83 193 c 256
 83 80 181 1 292 1 c 256
273 127 m 256
 228 127 204 159 204 188 c 256
 204 212 220 234 253 234 c 256
 300 234 366 212 400 190 c 257
 360 149 307 127 273 127 c 256
EndSplineSet
EndChar

StartChar: u
Encoding: 117 117 371
Width: 710
VWidth: 0
Flags: HW
PickledData: "(dp1
S'com.typemytype.robofont.layerData'
p2
(dp3
s."
AnchorPoint: "top" 424 648 basechar 0
AnchorPoint: "ogonek" 573 0 basechar 0
LayerCount: 2
Fore
SplineSet
197 -9 m 256
 335 -23 426 108 451 176 c 257
 445 113 l 257
 446 29 486 -11 573 -8 c 256
 672 -4 845 106 895 198 c 257
 899 228 853 269 819 269 c 256
 804 269 802 262 785 247 c 256
 763 226 676 134 615 130 c 256
 596 129 581 143 587 200 c 256
 607 372 662 553 679 608 c 256
 689 640 650 675 613 675 c 256
 566 675 542 667 515 571 c 258
 458 366 l 258
 408 188 300 108 231 129 c 256
 201 138 181 178 185 240 c 256
 196 415 287 587 290 622 c 256
 293 654 263 675 222 675 c 256
 189 675 166 668 149 640 c 256
 127 604 58 442 38 252 c 256
 24 120 66 4 197 -9 c 256
EndSplineSet
EndChar

StartChar: underscore
Encoding: 95 95 379
Width: 873
VWidth: 0
Flags: HW
LayerCount: 2
Fore
SplineSet
90 0 m 258
 714 0 l 258
 809 0 886 23 886 114 c 256
 886 147 863 158 829 158 c 258
 597 158 l 258
 516 158 426 157 347 157 c 258
 165 157 l 258
 87 157 -4 153 -4 76 c 256
 -4 24 39 0 90 0 c 258
EndSplineSet
EndChar

StartChar: uni02C9
Encoding: 713 713 451
Width: 420
VWidth: 0
Flags: HW
AnchorPoint: "top" 202 1037 mark 0
AnchorPoint: "mid" 202 1284 mark 0
LayerCount: 2
Fore
SplineSet
-15 1224 m 256
 77 1246 142 1268 409 1250 c 256
 456 1247 473 1259 479 1289 c 256
 488 1332 458 1348 426 1355 c 257
 193 1389 66 1386 -3 1366 c 256
 -72 1346 -81 1310 -80 1280 c 256
 -79 1246 -53 1215 -15 1224 c 256
EndSplineSet
EndChar

StartChar: uni0307
Encoding: 775 775 452
Width: 420
VWidth: 0
Flags: HW
AnchorPoint: "top" 224 680 mark 0
LayerCount: 2
Fore
SplineSet
238 914 m 256
 293 914 340 961 340 1017 c 256
 340 1064 298 1104 248 1104 c 256
 194 1104 148 1057 148 1001 c 256
 148 953 190 914 238 914 c 256
EndSplineSet
EndChar

StartChar: uni030F
Encoding: 783 783 453
Width: 420
VWidth: 0
Flags: HW
AnchorPoint: "top" 334 668 mark 0
LayerCount: 2
Fore
SplineSet
141 834 m 258
 179 792 251 832 219 883 c 258
 -20 1262 l 258
 -96 1382 -254 1273 -160 1169 c 258
 141 834 l 258
449 855 m 258
 483 809 554 849 527 904 c 258
 358 1262 l 258
 298 1389 133 1284 218 1169 c 258
 449 855 l 258
EndSplineSet
EndChar

StartChar: uni0311
Encoding: 785 785 454
Width: 420
VWidth: 0
Flags: HW
AnchorPoint: "top" 220 735 mark 0
LayerCount: 2
Fore
SplineSet
122 937 m 256
 141 1045 345 1048 328 953 c 256
 318 895 422 892 430 949 c 256
 445 1065 374 1131 254 1135 c 256
 155 1139 46 1088 27 944 c 256
 21 903 117 908 122 937 c 256
EndSplineSet
EndChar

StartChar: uni0358
Encoding: 856 856 457
Width: 420
VWidth: 0
Flags: HW
AnchorPoint: "top" 224 680 mark 0
LayerCount: 2
Fore
SplineSet
238 914 m 256
 293 914 340 961 340 1017 c 256
 340 1064 298 1104 248 1104 c 256
 194 1104 148 1057 148 1001 c 256
 148 953 190 914 238 914 c 256
EndSplineSet
EndChar

StartChar: uniFB00
Encoding: 64256 64256 478
Width: 1019
VWidth: 0
Flags: HW
LayerCount: 2
Fore
SplineSet
202 -423 m 256
 384 -423 456 -224 456 -83 c 256
 456 70 412 197 373 299 c 257
 433 300 504 304 559 322 c 257
 556 227 552 132 552 36 c 256
 552 -133 580 -318 724 -318 c 256
 892 -318 923 -159 923 -55 c 256
 923 87 875 205 833 299 c 257
 991 305 1206 322 1206 505 c 256
 1206 532 1197 554 1181 554 c 256
 1177 554 1172 554 1168 550 c 256
 1033 451 905 381 785 422 c 257
 929 559 1175 804 1175 1032 c 256
 1175 1129 1123 1194 1035 1194 c 256
 769 1194 628 789 570 438 c 257
 499 415 400 396 325 422 c 257
 463 583 701 870 701 1137 c 256
 701 1234 649 1299 561 1299 c 256
 172 1299 37 364 37 -27 c 256
 37 -194 56 -423 202 -423 c 256
225 -265 m 256
 198 -265 195 -131 195 -33 c 256
 195 101 208 231 214 365 c 257
 264 268 309 131 309 -40 c 258
 309 -43 l 258
 309 -121 308 -265 225 -265 c 256
727 -160 m 256
 686 -160 680 36 680 190 c 256
 680 259 681 297 680 342 c 257
 701 332 l 257
 733 254 788 68 788 -45 c 256
 788 -111 773 -160 727 -160 c 256
260 463 m 257
 244 480 l 257
 262 542 375 1142 535 1142 c 256
 564 1142 570 1108 570 1070 c 256
 570 903 374 607 260 463 c 257
704 480 m 257
 722 532 839 1037 1002 1037 c 256
 1032 1037 1045 1018 1045 990 c 256
 1045 859 808 556 704 480 c 257
EndSplineSet
Ligature2: "dligDiscretionaryLigaturesinLat subtable" f f
EndChar

StartChar: uniFB01
Encoding: 64257 64257 479
Width: 920
VWidth: 0
Flags: HW
LayerCount: 2
Fore
SplineSet
233 -423 m 256
 400 -423 466 -264 466 -55 c 256
 466 65 417 198 374 278 c 257
 456 279 532 294 598 318 c 257
 552 177 608 -6 766 -6 c 256
 895 -6 1000 78 1070 142 c 257
 1180 228 1086 332 1028 270 c 257
 973 225 885 127 793 127 c 256
 761 127 744 168 744 203 c 256
 744 360 811 500 860 604 c 256
 873 632 844 669 810 672 c 256
 765 676 714 661 696 618 c 256
 677 573 659 528 640 483 c 257
 571 434 403 402 312 422 c 257
 463 614 650 831 650 1137 c 256
 650 1234 595 1299 502 1299 c 256
 190 1299 48 472 48 -27 c 256
 48 -194 69 -423 233 -423 c 256
246 -287 m 256
 208 -287 191 -145 191 -33 c 256
 191 13 197 309 234 309 c 256
 269 309 320 92 320 -40 c 256
 320 -131 319 -287 246 -287 c 256
885 806 m 256
 962 806 1014 853 1014 932 c 256
 1014 1001 966 1030 902 1030 c 256
 825 1030 764 986 764 913 c 256
 764 842 810 806 885 806 c 256
258 557 m 257
 288 792 382 1142 484 1142 c 256
 516 1142 523 1108 523 1070 c 256
 523 980 349 728 258 557 c 257
EndSplineSet
Ligature2: "dligDiscretionaryLigaturesinLat subtable" f i
EndChar

StartChar: uniFB02
Encoding: 64258 64258 480
Width: 1029
VWidth: 0
Flags: HW
LayerCount: 2
Fore
SplineSet
202 -493 m 256
 381 -459 456 -257 456 -90 c 256
 456 38 412 214 373 299 c 257
 455 302 554 307 623 339 c 257
 615 131 688 -6 836 -6 c 256
 952 -6 1057 43 1170 170 c 256
 1239 246 1139 315 1098 268 c 256
 1027 188 945 124 871 124 c 256
 765 124 764 274 780 392 c 257
 998 561 1246 892 1273 1187 c 256
 1281 1272 1228 1344 1138 1344 c 256
 874 1344 698 843 640 484 c 257
 560 439 510 411 405 411 c 256
 378 411 345 415 325 422 c 257
 463 583 701 870 701 1137 c 256
 701 1234 649 1299 561 1299 c 256
 172 1299 37 266 37 -125 c 256
 37 -292 56 -521 202 -493 c 256
225 -363 m 256
 191 -363 189 -223 189 -121 c 256
 189 18 204 226 211 366 c 257
 273 266 328 50 328 -128 c 256
 328 -213 326 -363 225 -363 c 256
244 480 m 257
 262 542 375 1142 535 1142 c 256
 564 1142 570 1108 570 1070 c 256
 570 870 294 539 244 480 c 257
795 540 m 257
 829 748 957 1176 1087 1176 c 256
 1112 1176 1122 1163 1121 1134 c 256
 1118 968 934 697 795 540 c 257
EndSplineSet
Ligature2: "dligDiscretionaryLigaturesinLat subtable" f l
EndChar

StartChar: v
Encoding: 118 118 486
Width: 675
VWidth: 0
Flags: HW
LayerCount: 2
Fore
SplineSet
301 -6 m 256
 463 80 611 302 684 594 c 256
 719 736 453 716 471 370 c 257
 391 194 295 134 295 134 c 257
 290 134 213 284 280 600 c 256
 295 671 161 715 132 620 c 256
 2 194 168 -77 301 -6 c 256
974 513 m 256
 1003 567 929 645 888 590 c 256
 803 476 658 405 515 424 c 257
 500 314 l 257
 646 258 903 384 974 513 c 256
EndSplineSet
EndChar

StartChar: w
Encoding: 119 119 487
Width: 1179
VWidth: 0
Flags: HW
PickledData: "(dp1
S'com.typemytype.robofont.layerData'
p2
(dp3
s."
AnchorPoint: "top" 713 680 basechar 0
LayerCount: 2
Fore
SplineSet
744 -27 m 256
 875 -20 1020 102 1120 290 c 256
 1274 580 1195 774 1040 780 c 257
 690 780 852 157 1434 403 c 256
 1498 430 1454 537 1385 496 c 257
 943 342 933 666 1035 666 c 256
 1092 666 1118 561 993 346 c 257
 933 218 832 104 738 108 c 256
 657 112 630 222 687 385 c 256
 737 529 842 651 692 648 c 256
 618 647 555 388 549 230 c 256
 545 131 578 -36 744 -27 c 256
328 -22 m 256
 497 -14 581 181 687 386 c 257
 632 573 l 257
 552 391 l 258
 452 161 383 111 323 114 c 256
 263 117 242 197 251 288 c 256
 267 444 400 596 410 610 c 256
 437 650 333 749 258 636 c 256
 232 596 98 431 94 248 c 256
 90 69 187 -29 328 -22 c 256
EndSplineSet
EndChar

StartChar: x
Encoding: 120 120 492
Width: 668
VWidth: 0
Flags: HW
LayerCount: 2
Fore
SplineSet
776 556 m 256
 812 688 631 734 539 618 c 258
 296 309 l 258
 222 216 158 147 108 113 c 256
 21 54 142 -97 211 7 c 256
 259 79 305 148 364 225 c 258
 584 514 l 258
 653 604 755 478 776 556 c 256
519 -10 m 256
 717 -67 795 138 837 210 c 256
 878 279 815 354 761 280 c 256
 725 232 664 108 577 108 c 256
 479 108 409 257 175 658 c 256
 153 695 40 645 78 578 c 256
 289 212 358 37 519 -10 c 256
EndSplineSet
EndChar

StartChar: y
Encoding: 121 121 493
Width: 709
VWidth: 0
Flags: HW
PickledData: "(dp1
S'com.typemytype.robofont.layerData'
p2
(dp3
s."
AnchorPoint: "top" 500 618 basechar 0
LayerCount: 2
Fore
SplineSet
125 -650 m 256
 432 -650 514 -322 561 -76 c 257
 696 14 857 103 961 164 c 256
 1051 216 982 321 922 289 c 256
 855 253 673 138 583 71 c 257
 596 150 611 219 624 288 c 256
 642 387 684 503 684 597 c 256
 684 625 652 636 622 636 c 256
 569 636 543 600 528 545 c 258
 468 332 l 258
 443 242 389 133 307 125 c 256
 240 119 228 182 228 227 c 256
 228 318 255 408 279 484 c 256
 294 525 319 555 319 596 c 256
 319 630 285 647 262 647 c 256
 224 647 180 616 161 582 c 256
 104 474 64 359 64 197 c 256
 64 86 137 -1 242 -1 c 256
 311 -1 417 66 467 158 c 257
 405 -20 l 257
 297 -101 179 -166 92 -265 c 256
 37 -327 -45 -411 -45 -510 c 256
 -45 -609 22 -650 125 -650 c 256
134 -529 m 256
 114 -526 104 -507 104 -489 c 256
 104 -419 263 -238 381 -165 c 257
 357 -278 275 -550 134 -529 c 256
EndSplineSet
EndChar

StartChar: yen
Encoding: 165 165 497
Width: 1081
VWidth: 0
Flags: HW
LayerCount: 2
Fore
SplineSet
585 34 m 258
 662 270 l 257
 834 270 l 258
 898 270 963 278 963 337 c 256
 963 375 906 382 867 382 c 258
 705 382 l 257
 729 449 l 257
 851 449 l 258
 916 449 986 456 986 516 c 256
 986 555 926 561 886 561 c 258
 804 561 l 257
 894 686 1052 919 1142 1037 c 256
 1220 1141 1072 1226 1003 1122 c 256
 892 954 780 749 664 580 c 257
 650 658 546 1059 526 1128 c 256
 490 1254 328 1193 363 1077 c 258
 520 561 l 257
 416 561 l 258
 368 561 314 555 314 512 c 256
 314 462 362 449 416 449 c 258
 524 449 l 257
 508 382 l 257
 384 382 l 258
 336 382 286 375 286 332 c 256
 286 283 332 270 384 270 c 258
 478 270 l 257
 468 234 428 103 420 82 c 256
 358 -69 556 -57 585 34 c 258
EndSplineSet
EndChar

StartChar: z
Encoding: 122 122 499
Width: 482
VWidth: 0
Flags: HW
PickledData: "(dp1
S'com.typemytype.robofont.layerData'
p2
(dp3
s."
AnchorPoint: "top" 332 653 basechar 0
LayerCount: 2
Fore
SplineSet
608 134 m 256
 654 168 622 258 592 240 c 256
 283 57 147 110 147 172 c 257
 188 209 448 441 489 484 c 256
 520 517 522 563 522 592 c 256
 522 621 493 649 450 649 c 256
 416 649 223 647 103 647 c 256
 14 647 60 522 88 522 c 256
 142 522 284 531 388 538 c 257
 82 281 l 258
 55 259 18 219 8 173 c 256
 -34 -25 302 -96 608 134 c 256
EndSplineSet
EndChar

StartChar: zero
Encoding: 48 48 503
Width: 855
VWidth: 0
Flags: HW
LayerCount: 2
Fore
SplineSet
668 566 m 256
 661 325 598 96 406 132 c 256
 303 152 267 246 271 415 c 256
 278 699 360 883 533 863 c 256
 645 850 673 726 668 566 c 256
394 -14 m 256
 674 -43 844 245 844 595 c 256
 844 811 766 1006 538 1014 c 256
 230 1024 90 690 90 386 c 256
 90 170 183 8 394 -14 c 256
EndSplineSet
EndChar
